/* XPM */
static char *cff2d620f33249afa0ea7f0d27817225jVI9LLkjOPHbNeDp[] = {
/* columns rows colors chars-per-pixel */
"64 64 256 2 ",
"   c #010202",
".  c #010B06",
"X  c #02050B",
"o  c #030C0B",
"O  c #0A0C0D",
"+  c #0A060E",
"@  c #04120C",
"#  c #08160C",
"$  c #030D12",
"%  c #0B0D12",
"&  c #060C1C",
"*  c #051512",
"=  c #0B1413",
"-  c #0D1B13",
";  c #0D1B1A",
":  c #07141B",
">  c #121C15",
",  c #13161A",
"<  c #131B1B",
"1  c #1A1C1D",
"2  c #161716",
"3  c #121010",
"4  c #2A100C",
"5  c #0E211B",
"6  c #13231D",
"7  c #17261B",
"8  c #25241B",
"9  c #332D12",
"0  c #0B1924",
"q  c #121D23",
"w  c #1A1C23",
"e  c #141925",
"r  c #08142E",
"t  c #251C26",
"y  c #152422",
"u  c #1C2424",
"i  c #1A2B23",
"p  c #14232B",
"a  c #1B242B",
"s  c #172B26",
"d  c #1A2736",
"f  c #152B2A",
"g  c #24242C",
"h  c #262928",
"j  c #392B2B",
"k  c #283328",
"l  c #39382B",
"z  c #262A36",
"x  c #293436",
"c  c #353839",
"v  c #4E0B06",
"b  c #6F0E11",
"n  c #453217",
"m  c #473736",
"M  c #4E2E2A",
"N  c #712A31",
"B  c #701F24",
"V  c #244B36",
"C  c #285538",
"Z  c #325B3A",
"A  c #364832",
"S  c #39623C",
"D  c #1E4C31",
"F  c #4E4C37",
"G  c #644A3A",
"H  c #735638",
"J  c #4E6839",
"K  c #6A6836",
"L  c #565719",
"P  c #18284D",
"I  c #2B3745",
"U  c #373C45",
"Y  c #2A3450",
"T  c #133170",
"R  c #212F68",
"E  c #473947",
"W  c #6E394C",
"Q  c #384546",
"!  c #384657",
"~  c #334A4A",
"^  c #3A4F6D",
"/  c #345D54",
"(  c #444748",
")  c #574B45",
"_  c #444955",
"`  c #485558",
"'  c #545B59",
"]  c #4F5251",
"[  c #675549",
"{  c #6F5650",
"}  c #456A43",
"|  c #566945",
" . c #4B7244",
".. c #587A49",
"X. c #566C5B",
"o. c #67784A",
"O. c #646759",
"+. c #796659",
"@. c #6C724D",
"#. c #485865",
"$. c #525D64",
"%. c #495675",
"&. c #596467",
"*. c #586974",
"=. c #4E6C6B",
"-. c #656A69",
";. c #687376",
":. c #767878",
">. c #726E6C",
",. c #6F5B6E",
"<. c #922D31",
"1. c #B62E33",
"2. c #A01821",
"3. c #CF1C29",
"4. c #D42D35",
"5. c #EE3339",
"6. c #E11B1F",
"7. c #8C5C37",
"8. c #9D3A43",
"9. c #E93B44",
"0. c #F73C48",
"q. c #C33B42",
"w. c #955D4B",
"e. c #AD4A52",
"r. c #847258",
"t. c #8B6F53",
"y. c #A97052",
"u. c #886A62",
"i. c #877665",
"p. c #96796A",
"a. c #8D7472",
"s. c #AF746E",
"d. c #BA5462",
"f. c #D74D55",
"g. c #F54D52",
"h. c #C66D57",
"j. c #F26E72",
"k. c #DE5B6A",
"l. c #5D824D",
"z. c #5C8453",
"x. c #65874D",
"c. c #6B8D52",
"v. c #668853",
"b. c #778B59",
"n. c #6D9356",
"m. c #739454",
"M. c #7B9A55",
"N. c #73945A",
"B. c #749A5C",
"V. c #7C9D5A",
"C. c #789657",
"Z. c #769449",
"A. c #7DA25D",
"S. c #78A25B",
"D. c #7C9A65",
"F. c #708C70",
"G. c #7DA462",
"H. c #7CA764",
"J. c #5D8F77",
"K. c #98961D",
"L. c #FBEF2C",
"P. c #EBDA23",
"I. c #819E5C",
"U. c #8C9658",
"Y. c #8A8856",
"T. c #AC8651",
"R. c #82A35D",
"E. c #86A65A",
"W. c #859C68",
"Q. c #908F71",
"!. c #A68878",
"~. c #B08D6E",
"^. c #84A562",
"/. c #89A664",
"(. c #85A964",
"). c #89AA65",
"_. c #8AA66A",
"`. c #86AB69",
"'. c #8BAB6B",
"]. c #84A46C",
"[. c #93AA6B",
"{. c #8AB269",
"}. c #8CAB71",
"|. c #85A676",
" X c #91AD73",
".X c #95AE7A",
"XX c #9AB37C",
"oX c #96B379",
"OX c #93B26B",
"+X c #ABAE72",
"@X c #B6A557",
"#X c #C69976",
"$X c #D09471",
"%X c #DD9E75",
"&X c #C0C14F",
"*X c #0D3793",
"=X c #134BA3",
"-X c #525C86",
";X c #546A8A",
":X c #687685",
">X c #647698",
",X c #6B738E",
"<X c #566EAB",
"1X c #1575E4",
"2X c #8A7B86",
"3X c #B27283",
"4X c #E47887",
"5X c #7A8584",
"6X c #759090",
"7X c #788EAE",
"8X c #659EA2",
"9X c #75ACD0",
"0X c #5F95D0",
"qX c #3A8CE5",
"wX c #868A8A",
"eX c #878D94",
"rX c #969999",
"tX c #90928D",
"yX c #B0968A",
"uX c #9DB585",
"iX c #94AD91",
"pX c #A3B989",
"aX c #B3B292",
"sX c #919AAD",
"dX c #92A9B5",
"fX c #ABADAD",
"gX c #C69A86",
"hX c #CE928C",
"jX c #F18B8E",
"kX c #C9A893",
"lX c #D3AD91",
"zX c #E6B297",
"xX c #D0B2A9",
"cX c #ECB4B0",
"vX c #E399AA",
"bX c #B5C59A",
"nX c #B4C7A6",
"mX c #D1CDB6",
"MX c #F2CBB5",
"NX c #DBD4A0",
"BX c #B4BCCB",
"VX c #A6B2CA",
"CX c #8EADD3",
"ZX c #E7B9C1",
"AX c #B7C6D5",
"SX c #9DCEE4",
"DX c #CDD0CC",
"FX c #F7D9C6",
"GX c #EBD1CC",
"HX c #DBE5D6",
"JX c #F4E6D2",
"KX c #D1D6E8",
"LX c #E7E9F6",
"PX c #FAFBFC",
"IX c #EEEFEC",
"UX c #D9E5F3",
/* pixels */
"- 5 - # = *   . . . X @ . @ # @   o . . * # # * * * o wXp @ i 7 s s D 7 5 - 5 5 ; 5 ; ; 5 ; 6 5 6 ; 6 # 5XA * - - 7 7 7 5 # # - ",
"- - - * * ; &.>.;.:.&.#./ ` / ~ ~ Q Q x V V x x x f p ;.z y s y i i 7 s i 7 5 5 5 5 5 ; 5 ; ; 6 q < 5 * 5X~ @ * 5 s i 7 7 5 > # ",
"- * * = . A :.` ( fX6XQ / ` #.#.$.=.=.*.*.*.*.*.*.;.:X6X:X6X/ 5 i s 7 s s s 7 5 y 6 5 y s f y 6 u s s ; 5X` . * 5 7 7 i 7 7 > 7 ",
"o * * * . ` x o   F.$.  O . @ . o o # o = - ; = < Q < ^ y ;.' - i s i 7 6 7 s y y s 6 y s k u y y y y - F.' . @ 5 7 7 s 6 7 > 7 ",
"* @ o * . ( x 1 - wX&.. < ; = - ; - 5 7 6 < < , < -.2 #.; 5X' . 5 y y 7 y i s 7 7 i k 7 s y h y < < s * -.` 8 l 5 k 7 k < 5 > 7 ",
"- = - # # ` g < % wX&.X < o ;.*.o > 2 > > 2 * ; w $.O #., 5X&.  ; ; k h 5 s s s h i s s h G 8 y < : 0 * &.~ H { @ 7 7 5 - > # - ",
"6 ; 6 5 # $.u < % wX&.. ; * fXwX; - # = = = = ; h -.o #.e wX$.  @ 7 w.7 s y 6 6 a.] 6 s l %XG ; 6 5 ; o $.*.yXi.~ ` Q ! x x Q A ",
"> > - > 5 X.w 1 * tX&.  5 * a.$.. > ; > * < ; = x -.X #.< fX$.. $ l lX8 s s s y xX+.6 s k lX{ & ; ; ; @ G f.xX) f V ~ Q +.' ~ Q ",
"@ @ - # 7 X.1 1 o wX&.. - x rX&.e ; = - - 5 ; % c ' o #.; wX$.  * 1 gX8 : f i M xXkX) y W cXN 4 6 < = * 1.0.k.B 4 - - . p.H   # ",
"* @ - - > ' < u o tX&.. @ ;.rX:.z @ - - - - , % U -.% #.; 5X$.  = z kXU p * j 9.j.FX[ U j.4XhX<.3 5 @ f hXg.k.e.y.h # > @XK > > ",
"= O * # 6 ` 2 u * wX$.X - a wX,.* y # - - = q $ U -.: #.0 wX#.X e ;XsX>XP . j 9.j.MXF w.g.g.vXe.c f * x jX5.4XW kXm o &XL.P.L - ",
"o o @ o 1 ( , 7 = tX$.  = g rX' T <X@ = = = q : Q ' ; %.e wX=.: e >XsX,X& X #.jXe.kXl vX5.4XcXB #.x y [ GXj.1.,.kXt d P.L.L.K.: ",
"o X @ . u Q ; u $ tX' X ! c _ 1 *XqX> - ; 0 0 0 ` ! ; #.e eX*.: p %.>XP m c Q O.,.tXY >Xq.g.d.N ( f f i.GXUX2XhX{ U @ 7.L.P.K # ",
"% % $ o g Q , k @ tX` =X1Xh c 3 d T 1 < ; 5 p : ` U 0 $.d wX#.X ) a.-X$.s.g A -.*.;X,XP a.jXvX,.j f p r.g.4X,XM 0 ~ > K L.P.r.. ",
": : : $ c ~ - F o.yX2XqX1X{ j t M : ; ; ; q e 0 #.c : *.eXfX:Xa.xXrXsX<Xh & P ^ ~ %.^ & ,XPXVXM y u : i.f.6.b M z r G T.P.P.r.@ ",
"p q 0 & ! Q = a a wX*.^ T e.9.3.N 0 < 0 q 0 q : &.I p Y $.fX5X:.;.,XeXR e 0 >.a.a.rXP E u.4X3.b p a f !.m v <.{ P U s.t t 8 F 6 ",
"p d P p $.Q a x 7 rX-.= u q.6.5.<.d w p e p a e &.I d ! 0 5X=.0 0 Y -X! d d lXlX!.r.#.5X!.<.2.B ` ' -.yXE   m ) Y Y 3XQ X h +.< ",
"d d x p &.Q h c h rX-., Q e.N f.N U x w a d d a -.I a ^ d rX*.p ! dX7X;XP x !.~.t.[ z fXeXl $ 0 ] O.-.:.z z   fXBXsXfXQ % 8 n 7 ",
"p f c g -.c g x t rX$.+ Q &.R <Xr z j z u a a a &.d e ! d rX=.q -.PXPXKX/ d r.#XH 9 O 2XrX( x 1 c O.O.:.+.:.  DXKXLXKXU < 2 8 7 ",
"p g k h -.U k x 1 rX$., h *XT =XP t c j h g a a -.( c #.g rX*.q eXPXPXAXY a | %Xw.M t >.fX;.c g c ( ) wX~.tX9 KXDXDXKXU , > l i ",
"i k k h >.rXrXwXtXxX#., P =XR =XT , z g z g t e ) p.p.u.p.DX=.f rXLXPXVXz p &.cXt.) z *.gXG ] ~.c x Q :.tXkXt.yXp.fXmXc w 1 l h ",
"5 5 6 x :.[ +.+.[ fX$.e P =XP T T , I z z g t w j p.!.+.s.DX=.x a.yXBX:X~ x *.GXp.G e r E ! X.#Xx x A c ] tX[ yX>.O.yXU 7 8 8 h ",
". . @ z wXyXyXyXG fX%.e Y =XP *X*X+ Y z z g g e E kXQ.Q.!.DX` 5 a.s.t.a w ! -XyX~.M 3 r R P z ) > 5 y < 1 h   BX6Xt LX_ o = 8 9 ",
"c ( 2 -.c u.xXxXyXGX#.e U T d T T + g d g t e % aXlXt.[ !.GX;XY AXKXfX%.^ >X<X( $XM + r ,XP r z z %.^ d -XI P AX7X-XKX;.@.-.;X%.",
"! #.>XAX~ yXmXmXkXHX^ r ! d R R r ! -X^ -X^ ^ ^ pXlXp.t.!.mXCX0XAXHXAX9X9X8X-XU { h & d %.& & r ` SXdXO.SX#.J.UXAX9XKXbXoXbX9XiX",
"9X9X9X9XCXAXDXDXDXmX6X;XX.l / =.z *.J.8XJ.5XJ.J.~ F u.+Xt.W.n.n.iXLXfXH.H.X.-X;XY Y Y Y & X % & o.).%Xy.H.M Z.fXiXA.fXiXA.E.E.H.",
"|.].`.H.`.S.B.S.S.S.S.H.^.H.A.S.^.S.n.Y.4.3.w.3X$X~.s.#X{ R.`.H.pXLXaX(.oX..R ,X-XP ,X*.  +   9 O._.$XW.S.h.%XJ.X.H.F.X.H.S.S.B.",
"A.R.R.(.E.(.).{.{.(.(.A.^.(.(.(.(.H.y.g.4X4X3.4.3XlX$X~.@.`.`.{.8X<XF.'.{.>.Y :Xd Y ,X_ X X 7 M G N.S.S.H._._.z.x.n.v.z.z.z.x.z.",
"S.n.B.B.B.n.n.B.B.B.B.B.S.S.A.G.H.h.0.ZXZXk.4.3.2.u.zXp.@.).(.].8X;X..^.H.F.P e Y %.Y + % o F G @.c.v.B.D.B.n.B.B.B.B.B.S.B.B.S.",
"S.A.A.A.G.^.^.G.R.R.(.(.(.(.(.H.h.j.GXcXg.0.0.3.3.M { G b.OX(.(.H.'.'.`.{.(.Q.E Y Y e 3 X O H K M.'.`.`.`.{.{.{.`.`.`.(.H.H.H.S.",
"(.(.E.^.^.R.(.(.{.^.^.G.^.(.A.nXcXj.4Xg.5.g.9.3.3.v m b.).`./.(.{.H.`.`.'.H.NXu.P I w   + { { M.`.(.`.`.`.`.`.`.H.`.G.H.H.H.S.S.",
"R.^.^.^.^.^.G.(.R.^.G.(.^.A.aXPXPXLXg.9.9.0.9.3.9.<.m.{./.(.(.(.H.{.(.`.`.|.FX!.z z 3 c kXw.v.{.`.`.`.(.(.(.`.`.`.{.'./.(.(.H.H.",
"_.`._._._._.(._._.`._./.W.#XZXjXGXPXZX4.9.5.5.4.g.e.`. X}.{.}.}.oX}. X X(.pXJXgXE z u.FXs.X ~ oX{.'.}.}.].}.|.H.|.].].D.D.G.D.N.",
"_.[._.'.). X_.'.[.'.[./.~.ZXZXjXk.KXUXe.2.2.4.0.g.4.r.oX'. X'. X.X{. X X_.HXJXkXVXfXGXvX_ ^ ~ D.B.V.D.D.N.D.N.N.n.D.B.B.D.B.B.B.",
"R.E.E.R.R.^.R.(.^.^.(.[.j.j.j.9.6.s.SX2Xb b 2.0.g.4.H OX(./.(./.(./.`.R.aXPXFXxXBXPXFXzXKXSXsX^.(.(.G.(.(.).)./.`././.`.^.R.A.S.",
"/.(./._.^.).).).(.^.).t.8.f.g.g.3.b sX7Xn b 2.g.0.3.H {.)._.(._.(.`.)./.mXJXMXxXAXIXGXIXMXsXeX^./.(.(.(.(.(.(.^.^.H.^.^.A.A.S.V.",
"(.^.(.).^./.^.R.(.R.^.] z U <.9.3.b %.7Xm 4 v s.cX1.H {.^.(.(._./.(.(.+XFXzXMXmXIXfXIXFXgXwX|.E.'.(.(.`.(._.(.^.(.^.E.R.`._._.^.",
"^.(.(.R.'.oX.XXX'.(.N.Q ( c z j N 4 E ,Xl G @.aXPXKXF./.(.(.^.^./.oX XmXMXhXcXGXbXG.JXMXhX:.).(.(.(.`.`.(.(.(.(.(.^.^.(.`._.].^.",
"(.R.(.R.^.(.(.(.(.{.o.z ( x h 1 = , e E `.OX).R.GXKXiX(._.R.^.^./.(._.FXzXgXGXDXR.^.GXJXyXb.).(.(.(.(.^.^.^.^.^.^.A.A.A.B.V.V.V.",
"(.^.^.R.(.^.R.^.R.[.J g ] h u 3 w 2 + e | OX^.B.NXcXY.(.^./.^.^.(.A.aXFX$XlXDX}.^.^.bXFXp.I.).(.(.`.(.(.(.(.(.(.(.(.R.R.A.^.V.S.",
"R.(.E.`.^.A.(.(.^.{.| O ( c g 1 1 < u 2 , A ).R.aXzXY.)./.^.(.(.`.R.NXzXy.MX~.R.).R.bXMX@.).).).(.(.(./.(.(.(.(.(.^.(.(.(.A.A.A.",
"(.(.(.(.(.(.(.R.R.{.J   h h 1 , 2 1 , < w _ F (.oXMXQ.W.(.(.(.{.A.bXMXw.#XlXY.{.{.S.nXGXwX`.(.).).).)./.).R.(.(.(.(.R.(.R.A.A.R.",
"E.(.(.A.(.(.(.(.^.OX|   . 8 2 O O 3 3 2 c wX( .X/.zXgXW.(.'./.(.`.JX$Xy.NX[.{.(.`.R.HXLXdX].(.).).(.E.(.(.(.(.(.R.R.^.A.A.R.A.V.",
"^.^.R.(.A.A.(.A.R.{.J +     , 3 3 1 h < g z yXhXQ.p.$XQ.(.).).A.pXIXa.@XOXG.(.(.(.{.IXIXdXE.(.(.(.(.(.).).(.R.(.R.^.A.(.A.A.S.V.",
"(.A.(.R.(.(.(.(.R.{.|   2 O  .F j U 7 # 2 { zXgXaXt.u.Q.(.(.(.R.DXDX$.@.{.`./.).(..XPXUXeXH.).(.^.(.^.H.R.(.R.R.R.^.^.R.^.R.I.A.",
"A.(.R.(.R.A.A.(.R.{.| h 1 = `.^.A l 7   2 #XzXlXzXu.G +.^.^.(.(.HXAX;.G.`.(.(.).H.oXPXKXH.{._.`.(.(._.^._.).).)./.^.^.R.R.A.V.V.",
"(.A.A.(.E.(.(.(.R.{.x.>   F ).(.B.c.E.l.K y.#XMXzX+.G +.D.(.E.'.HXBXQ.(.(./.)./.^.XXPXBXD.[._.).).).)./.)./.^.R.R.R.V.R.A.W.R.^.",
"(.A.A.(.R.H.R.(./.R.[.k 4 K (.^.^._.E.{.H.E.T.MXkXY.| [ b.(.(.XXHXeXD./._._.).'.^.XXLXrX].`.(.R.R./.R.R.).)._. X.XXXuXuXpXuXpXuX",
"A.A.E.(.R.R.^.R.{.S.NX#Xn K {.E.^.^.^.R.^.[.+.j j b.^.) i.mXE.@XsXtXR.R.R.R.I.R.S.oXLXrX'. X.XXXpXpXpXpXpXpXpXpXuX}. X_.W.R.M.M.",
"(.A.A.A.R.R.A.(.R.Q ~.T.9 Y.{.(.)._._.)./.).] e . K ).@.O.DXNXU.dXW.). X[. X.XuXXXnXPXfXpXpXXXXX X'._.(./.^.^.^.R.V.V.V.M.M.V.M.",
"^.R.E.(.^.W.'.b.c w m H K /.E.E.R.R.R.R.R.R.F w 3 @.Y.Y.[ yXmXKXfXuXpXpXpXuXXXXX'.mXLXQ.E.R.R.R.R.I.R.I.R.R.^.^.^.I.I.I.V.V.V.M.",
"^.(.).(./.^.(.Q w ,   J R.^.^.(._._. X.XXX.Xx , 3 uX[.+X!.+.~.MXiXR.R.R.A.R.R.I.M.bXZXU.(.^./._./././.^./.R./.R.^.^.^.I.V.V.m.m.",
"R.R.R.R.V.).@.g 1 . O.uXXXpXpXpXpXuXuXuXXX|.h , 2 W.^.+X+Xa.s.3.w.).^.).).)././.R.lXj.y.H.^.V.C.C.C.N.n.n.m.n.c.c.x.l.l... . .J ",
" X.X.XuXpX.Xc z % 7 oX X`._.].`.^.R.I.I.E.W.,.+ k ).I.E.Q.+.+.B K N.m.m.N.b.b.m.n.T.%Xg.r.n.c.v.l.z.z.l.l.l.l...l...l. . . . ...",
"XXXX X[. XO.g z c c.R.R.R.R.R.I.W.E.I././.W.E + F OX)./.~.t.G E @.I.C.V.I.b.m.C.M.T.h.jXh.}  .l.x.c.v.c.c.n.c.v.x.z.c.x.x.x.n.c.",
"I.M.R.E.W.c u 2 c.[./.^.^./././.^././.^.^.b.g + J OXE.R.(.).I.| z v.).^.R.R.I.E.E.E.U.%Xy.J ..V.R.R.R.R.G.R.^.R.A.S.S.S.S.S.m.Z.",
"^.R.E._.] a 1 o.[.I.^./.W.R.E./.^./.I.R./.b.g % x.).I.^.R.R.(.)...U X.)./././.E.R.E._.R./.)./.R.^.^.V.R.A.V.S.A.A.S.M.S.M.M.M.m.",
"^.R./.X.1 6 F ).I.I.A.I.R.V.I.R.R.R.I.R.^.b.g 3 b._.^.(.E.R.R.R._.@.$.F.I.R.R._.R.R.R.R.R.R.R.R.V.A.A.A.E.R.E.R.E.E.A.M.Z.m.n.x.",
"R.V.+XY.% 7 V.R.I.I.V.A.R.R.R.R.R.V.I.V.(.v.a , m.I.I.R.R.R.R.^.(.E.D.:.;.V.).E.(.).).E.R.E.^.R.R.I.G.B.N.m.c.x.l.l. .S Z C C D ",
"I./.FX$Xv A R.A.I.I.I.R.^.I.V.I.^.I.I.R.A.F g 1 U./.V.^.V.I.C.V.m.c.c.o.$.( v... ... .} } } } } } S S Z Z C C V D D C C Z Z Z S ",
"I.I.pX_.L Z F.E.R.R.E.R.V.V.V.C.m.m.n.c.N.( - O.y...v.o.x.o.l...l.....} } O._ X.F.` x.l./ C C D V C C C C Z }  ...l.x.Z.Z.n.Z.m.",
"R.R.E.Z.J } X.J  .| ......x.x.x.x.x.c.x.W.lXtXIXfXJ x.C.I.I.R.E.^.E.E.R.I.m.' *.fX` c. .Z S  ...z.z.v.n.m.V.A.A.S.S.M.m.c.Z.c.n.",
"E.E.E.E.U...x.x.m.m.Z.C.V.M.V.V.E.E.E.S.aXFXJXJXDX6XeX|.Z.c.c.c.v.v.l.l.....x.F Q Q V Z x.R.R.R.E.^.^.A.E.I.S.C.m.Z.m.m.m.n.Z.n.",
"Z.Z.I.I.I.E.I.E.I.E.I.M.I.I.I.V.Z.E.E.E.bXJXNXHXIXIXHXF.D ..b.c.m.C.C.M.I.R.E.S.o.x.n.M.A.R.A.R.W.V.^.V.V.M.A.V.M.M.S.m.m.Z.Z.n."
};
