/* XPM */
static char *e0b6fad99e5744a691a8929265ffa130l1GTlKI95TAqDFpv[] = {
/* columns rows colors chars-per-pixel */
"64 64 238 2 ",
"   c #4C0201",
".  c #5A0702",
"X  c #680C02",
"o  c #6C1403",
"O  c #761502",
"+  c #7B3B15",
"@  c #78260C",
"#  c #861A03",
"$  c #901800",
"%  c #882503",
"&  c #932404",
"*  c #982D04",
"=  c #9B3404",
"-  c #843D19",
";  c #A33403",
":  c #AB3403",
">  c #A73B06",
",  c #B23C04",
"<  c #B73A02",
"1  c #A52D03",
"2  c #8E4515",
"3  c #AA4204",
"4  c #B44303",
"5  c #BC4402",
"6  c #BB4B03",
"7  c #B64B09",
"8  c #B85209",
"9  c #B95B16",
"0  c #AD4F16",
"q  c #B9651D",
"w  c #975226",
"e  c #945128",
"r  c #A65B29",
"t  c #A85C2E",
"y  c #9D6339",
"u  c #AC622E",
"i  c #AA6537",
"p  c #B36D3D",
"a  c #B86C39",
"s  c #BC733D",
"d  c #BA682B",
"f  c #C34B04",
"g  c #C35303",
"h  c #C95908",
"j  c #D35B03",
"k  c #C25C16",
"l  c #C9640D",
"z  c #D46304",
"x  c #DB6D0C",
"c  c #D86807",
"v  c #DB730C",
"b  c #DD740A",
"n  c #CA6815",
"m  c #D86B14",
"M  c #DE7B15",
"N  c #D97617",
"B  c #CE7018",
"V  c #E26C08",
"C  c #E2730B",
"Z  c #E37A0D",
"A  c #EB7D0D",
"S  c #E87508",
"D  c #E47C13",
"F  c #EC7D13",
"G  c #E57A19",
"H  c #F17F18",
"J  c #C86B27",
"K  c #CA7329",
"L  c #D97A26",
"P  c #C87837",
"I  c #D67D33",
"U  c #E67D22",
"Y  c #986B46",
"T  c #B56F42",
"R  c #A5724B",
"E  c #BB7445",
"W  c #BE7A4D",
"Q  c #B87446",
"!  c #AA764E",
"~  c #C37C4B",
"^  c #C77B4A",
"/  c #C17E52",
"(  c #F3830C",
")  c #EB8215",
"_  c #EB851B",
"`  c #E88418",
"'  c #F48414",
"]  c #F2841C",
"[  c #F48B1D",
"{  c #F98B1A",
"}  c #F8911E",
"|  c #EF800E",
" . c #DD852B",
".. c #DB8835",
"X. c #EC8522",
"o. c #ED8B24",
"O. c #E88A2A",
"+. c #F28523",
"@. c #F38C24",
"#. c #F98D23",
"$. c #F48D2B",
"%. c #F59125",
"&. c #FB9325",
"*. c #F4922B",
"=. c #FB942B",
"-. c #FC9A2D",
";. c #FB9A28",
":. c #E78B36",
">. c #F48E33",
",. c #ED953B",
"<. c #E7963A",
"1. c #F59534",
"2. c #FA9532",
"3. c #F59B34",
"4. c #FC9C34",
"5. c #FC9D3B",
"6. c #F59939",
"7. c #EE942C",
"8. c #FEA12C",
"9. c #FDA235",
"0. c #FDA33C",
"q. c #FEA93D",
"w. c #F8A33C",
"e. c #BA8450",
"r. c #AD8363",
"t. c #C78458",
"y. c #D68B57",
"u. c #D08948",
"i. c #E99946",
"p. c #F59D44",
"a. c #E59C54",
"s. c #ECA449",
"d. c #FDA543",
"f. c #FDAB44",
"g. c #FDA64B",
"h. c #FDAC4B",
"j. c #F4A649",
"k. c #FEB145",
"l. c #FEB24D",
"z. c #FDB84A",
"x. c #ECA658",
"c. c #FDAD53",
"v. c #FCAE5B",
"b. c #F4A956",
"n. c #FDB354",
"m. c #FEB955",
"M. c #FDB55B",
"N. c #FEBB5C",
"B. c #F6B457",
"V. c #CA8C66",
"C. c #D38E63",
"Z. c #CD926D",
"A. c #D99669",
"S. c #D69A74",
"D. c #E29E73",
"F. c #E39861",
"G. c #DCA47B",
"H. c #E9AA65",
"J. c #F2AC66",
"K. c #FCB563",
"L. c #FDBC63",
"P. c #FDBC6A",
"I. c #F5B669",
"U. c #E5A679",
"Y. c #FCBE73",
"T. c #F8BB7B",
"R. c #ECB462",
"E. c #FEC45D",
"W. c #FEC265",
"Q. c #FEC36C",
"!. c #FDC96D",
"~. c #FFCB62",
"^. c #FDC472",
"/. c #FDC974",
"(. c #FDC679",
"). c #FDCC7B",
"_. c #F5C477",
"`. c #FDD07D",
"'. c #DDAB8B",
"]. c #DAA784",
"[. c #D7B899",
"{. c #CFAB86",
"}. c #E4AC8A",
"|. c #E8B28D",
" X c #EBBB9B",
".X c #EBB794",
"XX c #F2BB97",
"oX c #F7B881",
"OX c #EFBFA2",
"+X c #FDCD82",
"@X c #FAC988",
"#X c #FDD283",
"$X c #FDD48B",
"%X c #FDD98D",
"&X c #FCD887",
"*X c #FAC89B",
"=X c #FDD592",
"-X c #FDDA94",
";X c #FDDB9B",
":X c #FDD798",
">X c #EBC29C",
",X c #EEC3A5",
"<X c #F5C7A8",
"1X c #FDDDA3",
"2X c #FED4AC",
"3X c #FDDEAA",
"4X c #F5CEB3",
"5X c #F8CFB5",
"6X c #FEDAB4",
"7X c #F9D6BB",
"8X c #FCDBBD",
"9X c #F8D3B6",
"0X c #FDE4BB",
"qX c #FDE1AB",
"wX c #FCE09F",
"eX c #FCDDC3",
"rX c #FEE4C4",
"tX c #FEE4CB",
"yX c #FEEACC",
"uX c #FDEAC3",
"iX c #FEECD3",
"pX c #FEEEDA",
"aX c #FEE7D0",
"sX c #FDF2D5",
"dX c #FEF2DD",
"fX c #FDF4E2",
"gX c #FDF8E6",
"hX c #FEFBED",
"jX c #FEFCEF",
"kX c #FEFCEE",
"lX c #FDFCEF",
"zX c #FCFAEB",
"xX c #FBFEF2",
"cX c #FDFDF1",
"vX c #FDFDF2",
"bX c #FEFFF5",
"nX c #FEFFF6",
"mX c #FDFFF9",
/* pixels */
"jXjXjXjXjXjXjXjXjXjXjXjXjXhXjXvXnXmXnXvXjXjXjXjXjXjXjXjXjXjXjXjXjXjXzXvXnXnXnXjXzXjXjXjXjXjXvXjXvXjXlXxXvXlXxXxXxXxXxXxXxXxXnXxX",
"jXjXjXjXjXjXjXjXjXjXjXjXjXjXvXsX0X0XiXgXjXnXvXjXzXjXjXjXjXvXjXjXjXjXnXvXsXyXsXzXnXnXnXvXzXjXjXvXjXjXlXlXjXxXxXjXxXlXxXxXxXxXxXxX",
"jXjXjXjXjXjXjXjXhXzXhXzXzXvXyXW.W.q.f.Q.-XuXgXvXmXvXjXjXzXjXjXjXjXvXsXQ.q.n.W./.-X0XsXzXmXnXvXzXjXxXxXnXvXvXzXvXxXvXlXjXxXxXxXxX",
"jXjXjXjXjXjXhXjXnXnXnXnXvXvX;XW./.;X).Q./.%X&X$XqXsXgXjXnXvXjXzXvXuXN.m.h.P.Q.Q.!./.Q.Q.3XsXzXmXjXdXsXdXzXmXnXvXjXjXxXxXlXvXxXvX",
"jXjXjXjXjXhXnXjX0X=X1XuXfXmX1XL.n.Q.).)./.^.Q.#XQ.m.M.(.1XsXzXnXnX/.m.$X/.W.z./.-X$X#XE.l.m.^.1X#XL.N.^.#X3XsXnXxXjXjXxXvXvXjXxX",
"jXjXjXjXjXnXsX#XL.M.h.l.Q.3X1XQ.N.Q.^.W.W.).^././.).P.m.!.&X;X;X;XL.E.`.(.&X~.E.m.(.!.z.k.l.M.n.W.).Q.+X^.W.).=XdXmXxXjXjXxXjXvX",
"jXzXvXnXdXwX!.m.M.P.L.L.n.M.Q./.P.N.+X#XW.W./.).Q.Q.#X).`.+XQ.!.N.N.N.m.L.W.l.n.K.n.n.M.k.h.(.W.#X-X#X).1X-X+X!./.;XfXmXxXlXlXxX",
"zXvXvX0X%X/.N.Q.q.;.M.).P.h.%.h.P.0.d.n.Q./.N.M.Q.L.m.m.!.).n.N.+X!.E.l.m.m.m.N.Q.!.).).)./.)./.).Y.=X#X$X+XY.;X`.W./.3XgXnXvXjX",
"nXdX;X~.E.Q.K.m.n.l.L.l.0.{ j L W.v.^.).m.M./.#XL.).#X).!.#X-X#X).`.-X`.#X).).L.^.Q.).$X#X-X;X#X/.W.N.#X#XW.P.(.m.N.N.n.(.yXfXnX",
"qXQ.W.N.k.k.n.K.#XQ.h.d.+.b j f L.M.d.Q.+XQ.W.Q.).:X-X!.`.#X#X;X-X).L.m.(.Q.N.0.K.^.!.)./.Q.+X)./.).)./.wX-X&X#X+XP.P.Q./.#X#X1X",
"!.W.Q.^.W.m.f.d./.m.4.=.O.n N < I N.c.c.5.M././.N.N./.!.Q.N.!.%XQ.~././.N.m.Q.w.%.M.).!.).&X`.$X$X/.).#X).^.^.`.$X`.`./.+X;X%X`.",
"W.E.l.M.)./.f.{ l.k.f.=.x L p.c : ,.l.2.#.=.g.$XwXQ.E.#X-X+XQ.).-X/./.#X=X-X`.L.4.*.M.)./.^.#X).+X/.n.P.=XQ.Q.`.#X#X-X-X#X).$X&X",
"N.m.f.-.L./.l.{ w.k.l.=.j 6 m x : & G ;.=.#.=.0.#X;X#X).^.#X).Q.Q.L.Q.!.N.N.Q.Q.f.-.U K.)././.#X`.`.$X#X-X-X-X#X+X).)./.Q.P.N.W.",
"W.m.N.4.' } w.=.} q.n.&.z < < h : $ : j G ] F ' 4.l.L.N.n.h.M.Q.`.!.m.Q.&X#X).#Xh.H f h n.Q.N.N.^.).$X#XQ.W.^.).^.+X:X+X%X%X#X#X",
"m.l.m.f.[ b } { S ' k.8.b 6 g h < 0 F 1 # 8 h j x H 3.5.f.g.P.m./.-X$X`./.).).`.Q.O.7 $ 7 4.9.f.N.m.L.`./.W.Q.-X-X`.&X-X-X%X%X#X",
"K.h.h.0.2._ j.f.( c q.q.V 6 K M f ,.F < # o # = , < j C G 1.4.g.c.l.P./.!.m.h.h.P.p.: & # * G 9.9.-.9.M.^.).`.`.$X=X).+X/.W./.`.",
"iXg.{ -.#.#.d.g.&.V @.4.A c L o.v n.) f & o X X . o % > , j C C C H $.2.c.v.v.M.L.B.h g 4 & # 5 Z ] { ;.g.M.P./././.^.).#X#X#X&X",
"hXyXg.' @.} &.' A V c @.] Z z j c j.%.c : # o O X O O X X X % , f f f j H =.5.g.h.3.M g f : > : & * h A H +.0.c.n.K.^.P.Q./.).`.",
"dXgXzXI.| } 4.%.) z < g *.O.S b h 7.x.%.j * O X % , # X .     X O $ & * f h V H H +.` k 3 l =.j & O O # f j C ' } &.4.d.c.N.n.n.",
"sXsXsXgXR.A %.4.' c h : l @.` C j h i.9.S 6 % o k x 5 &   @ L h > O X .   & f :.p.p.@.c 9 h.f.;.h O O 9 L f g 8 , 5 j F H ] { ' ",
"sXsXsXiXdX@X) _ o.| c 6 > x ` ` b : L ;.] S = o L H S f X B 8.0.1.8 % o d f.m.h.g.b.,.G h.l.N.m.{ : P E.E.d.x 3 5 : 4 f G 5.{ H ",
"iXiXyXyXyXsX6Xp.| %.) z 5 6 ` @.A 6 7 -.@._ g @ L =.{ x = $.5.d.p.9 2 ..E.P.+XY.0.@...M.L.n.n.K.j.p.W.P.^.W.n. .6 f k N h +.#.5.",
"yXiXyXyXyXrXyXyXx.) ` ` c 4 6 _ _ c 4 l ` D v 3 9 p.+.m , ,.5.g.g.N J E.n.M.Y.@Xc.H p.L.^.K.h.n.L.m.c.h.L.L.Q.^.w.F V L l j +.p.",
"yXyXyXyXrXrXrX0XrXx.b | b h ; l _ v h * N ` N 7 > +.+.C : L 5.d.c.x U m.d.g.g.J.K.*.g.h.^.(.L.P.K.n.c.c.c.K.M.P.Q.Q.9.H l c S +.",
"yXyXyXrXrXrX0X8X6X[.H.N c c 8 ; B G G 7 & N v l 4 h x l 8 7 =.$.g.L L c.d.h.c.g.b.5.0.p.v.v.N.n.N.K.n.g.P.(.).K.n.L.).N.9.[ ( { ",
"uXtXuXrXrX0X6X2X2X[.].U.I g 6 ; > v D v > = N N h > 6 n h 4 h x $.m 0 p.g.g.K.>.j =.5.5.p.c.N.g.M.Y.n.0.K.-X@X,.N.N.N.(.W.N.h.0.",
"iXaXyXrX8X6X6X2X2X>X{.U.U.y.q 4 * 4 z c h & = v c 8 * 6 f 4 > < x G 4 L 0.5.v.>.4 N 2.U 2.K.Q.Q.^.$XK.d.n.#X+X<.Y./.m.l.n.W.).).",
"K.Y.@X6XeX6X2X2X2X2X[.].A.G.U.A.^ a K N N n > k ` c ; % 7 6 ; 1 h c j , U +.5.>.; > +.U U M.W.).#X@X .K.m.P.).#X$XL.n.h.d.M.P.^.",
"-.-.} d.Y.2X8X2X*X*X>X[.G.V.S.D.H.K.f.0.f.f.0.n.B.5.4.,.,.1.,.,.6.2.7.U U V G p.l 0 B m :.W.N.Q./.@Xd Y.W.q.d.M.Q.K.d.g.K.Y.^.n.",
"P.p.I.).-.$.v.*X2X2X*X'.[.G.t.x.0.0.9.f.l.l.n.n.h.d.q.f.k.h.l.n.n.n.n.n.d.>.m z v k 3 6 s.W.L.L.M.W.+X).l.9.=.c.K.^.d.5.Y.-XY.c.",
"K.6.b.P.=.V _ &.s.T.<XXX{.[.x.k.-.q.q.k.(.Y.P.(.N.f.5.[ 0.h.M.K.^.Q.n.h.d.2.p.m g h * > n.N.P.L.n.w.P.^.c.d.g.c.^.Y.j.2.n.;Xs.1.",
";.-.8.0.#.( A A ' } j.T.|.{.I.k.q.q.9.q.#Xi.i.-Xm.d.d.4.4.f.).x.I.).m.N.g.5.p.>.4 h k K N.n.M.M.P.c.v.^.M.d.g.K.=XJ.<.n.f.L.`.).",
"f.M.b.L.n.-.8.3.x.(.Q.0.>.a.l.l.n.l.f.N.W.,.i.).M.f.w.9.f.l.!...a./.N.M.c.n.n.4.6 3 g p.M.n.P.M.M.L.@X+X).s.-.d.+Xu.I $Xk.f.K./.",
"f.N.b.L.Q.f.;.;.-.n.f.;.A w.l.Q.P.P.W.P.k./.K.0.K.c.f.n.n.m.q.z.m.z.N.h.P.(.P.0.k % 8 M.n.M.+X_.h.g.P.1XH. .M.f.m./.(.$Xl.c.M.K.",
"L.k.f.q.-.&.{ ' -.-.9.;.2.N.N.#Xb.K.$Xl.f.5.2.q.n.Y.i.P.).l.L.$X$XN.N.L.I.=XW.0.k . r W.h.L.#X=Xp.K.n.^.s.i.$XN.n.K.!.P.h.n.n.P.",
"N.k.n.n.N.m.9.4.g.B.(.n.k.m.f.E.B.B./.n.4.=.4.9.h.(. .I.!.l.n.).W.f.m.I.i.).n.=.z X d m.h.M.#XR.L ^.k.n.W.#X#XN.l.M.L.L.g.5.d.Y.",
"W.m.n.c.^./.f.g.b.6.L.n.n.n.q.w.l.f.l.n.m.n.B.P.h.n.l.k.q.f.f.q.h.f.f.h.c.n.9.#.h O K M.c.h.W._.x.%X(.K.g.N.(.P.h.B.L.).P.-.9.L.",
"l.k.q.f.k.w.9.&.%.&.-.} n.m.0.f.f.4.9./.I.b.@X(.h.4.;.4.M.K.L.K./.n.f.0.d.w.5.@.g X J d.2.0.g.P.$X).P.9.d.v.+X).0.d.P.-Xx.i.n.M.",
"Q.N.n.M.v.M.m.w.3.7.,.c.P.n.0.f.k.h.h.n.b. .+Xm.0.=.&.4.k.).J...$XN.h.h.c.d.2.$.8 o & 4.*.2.5.2.^.L.M.g.5.g.+X@Xj.0.l./.i.x.).N.",
"/.W.m.n.j.Y.Q.w.%.*.O.I.Q.f.d.n.M.P.n.9.l.N.k.q.0.4.0.h.k.~.B.j.W.m.l.h.h.h.d.4.9 2 - L -.@.4.*.P.^.M.K.#.d.(.H.:.L.W.I.W.).!.N.",
"f.9.d.0.9.9.=.[ ) @.o.w.n.q.P.b.b.+XW.l.M.4.=.f.M.M.I.^.m.0.;.4.h.m.N.c.Y.+XN.0.n + + w %.[ +.2.K.-XY.:.2.g.P.R.x.+Xn.g.h.K.^.M.",
"6.2.9.M.N.d.d.f.[ o.Z 7.n.k.+X .<.%XN.w.v.4.2.f.).i.J.%Xn.4.' { -.h.Q.a._.-Xn.f.J 2 + + q %.b >.v.%XH.i.^.k.l.Q./.L.h.4.p.K.(.P.",
"=.#.-.0.M.j.B.Q.f.4.7.i.m.k.m.j.b.N.m.q.4.h.n.q.L.j.j.).n.4.{ #.-.f.Q.,.I.!.k.h.s - 2 2 w M Z N >.c.Q._.$Xh.d.K.n.h.c.5.4.K.$X(.",
"6.3.*.=.4.9.5.=.=.@.F n.L.f.q.f.l.9.n.n.h.^.^.k.m.h.9.n.N.f.w.n.n.n.k.z.f.f.f.h.u.e e e w w B M C X.5.M.Q.n.4.K.K.n.c.5.#.c.;XJ.",
"U G 3.0.=.@.] F D C c B.m.9.9.d.f.l.Q.I.i.+X).m.0.2.f.^.N.Y.x._./.f.f.h.0.q.d.h.e.Y Y y y e w B Z c b ) 2.d.d.g.Y.(.L.3.4.f.).s.",
"XX^ B  .O.o.` c z h h P.h.9.0.d.n.n.N.N.<._./.l.0.0.0.f.M.^. .I.N.q.f.g.0.0.0.g.e.y Y Y Y R Y R P ` M Z C ` 1.d.K.-XH.i.n.n.^.+X",
"dXaX,XC.K h l l h 6 n W.h.n.h.n.K.n.0.q.k.k.B.d.0.w.h.h.L.M.l.W.l.f.h.n.n.k.0.c.e.i Y i R R R ! r.e. .M ` v C *.0.Q.R.R.+XN.^.P.",
"fXdXsXiX9XG.^ r > & r L.q.(.x.x.+XN.0.&.4.d.q.g.j.b.(.m.d.-.4.0.d.f.h.L.+Xn.d.M.s r i i y i Y R R ! r.u...X.` D @.5.W.`.Q.q.f.K.",
"gXfXdXdXpXiX8X,X].t.y.m.f.Q.<.<.#Xn.4.-.0.d.9.^.i...$XW.0.2.9.q.w.Q.b.x.=Xl.5.K.T t t t y T i y y w u y w d ` _ ` ) %.h.n.d.c.v.",
"gXfXgXdXsXaXtXrXeX8X*XM.0.0.l.N.f.&.;.0.f.f.f.m.f.<.m.f.q.d.q.0.q.N.L.l.N.0.5.v.T p i p T T T T T p i i i u u P 7.[ A A [ 2.v.P.",
"gXgXfXfXfXiXaXrXeX8X*Xc.g.4.&.=.-.4.d.i.w.K.l.2.2.0.q.f.h.n.n.M.k.f.q.q.8.0.g.a.t a i T T / / / W W Q T T a p i s  .) ` D A $.c.",
"gXgXgXfXfXdXiXyXrXrX2Xk.c.=.=.=.=.n.T. .x.).M.M.=.2.d.h.I.x.P.#XW.l.9.-.0.h.M.a.t t t i T / / / W W W Q Q p a s p Q P ..,.o.A +.",
"zXgXgXfXfXfXsXaXtXrX6XK.f.d.f.5.0.n._...x.).B.h.4.=.&.f.(. .x.#XW.h.;.#.$.5.v.u.r r r d T / / / e.W W W W W E E E ^ ^ / y.i.o.Z ",
"zXzXgXfXfXfXfXpXyXrXeX@Xc.j.5.0.5.f.L.(.Q.M.d.d.5.0.4.5.h.f.N.N.M.5.#.+.+.p.K.a t r r t T / / / W V.W W W W E E ~ ^ t.y.C.A.F.i.",
"zXzXzXzXzXfXfXfXpXtXrX2Xb.5.$.1.1.5.d.l.n.g.h.c.0.4.w.d.9.0.h.h.5.$.F F 5.K.A./ W p p T ! / / / V.W V.W W W Q E ~ ^ ^ t.y.C.A.U.",
"zXzXzXzXzXgXzXfXfXsXyXeXXXi.7.X.` o.X.o.*.1.1.7.$._ @.1.$.1.5.,.A Z C +.v.D.S.S.Z.V.V.V./ Z.Z.{.Z.Z.V.t.t.t.t.t.t.t.t.y.y.A.A.D.",
"xXzXxXzXzXzXfXzXgXgXdXiXtXXX..B v N M M M M ` N M M G G F G S V b C +.J.U.}.}.}.'.'.].'.'.'.'.'.].].].S.Z.Z.Z.V.y.V.C.C.C.A.D.D.",
"zXzXzXzXzXzXzXzXzXgXgXfXfXpX8X}.T 9 8 0 8 l n l B B N N N N G G X.:.J.XXXXXXXX XOX[. XOXOXOX,XOXOXOX X X}.].].S.S.S.S.A.A.A.A.D.",
"zXzXzXzXzXzXzXzXzXzXgXzXgXfXfXgXpX4X].V.Q t 0 0 0 9 k J ^ u.y.F.U.XXXXXXOXOXOXOX,X4XOX4X5X5X5XeXeXeX5X4X4XOXOX X.X}.'.G.G.U.U.U.",
"lXzXzXxXzXzXzXzXzXgXzXzXzXgXgXfXfXgXzXfXiX7X,X'.Z.t.^ ^ ^ y.C.D.}.XXXX<X5XOXOXeX4X4XeXeXaXaXaXaXtXeXtXtXeXeXeXeX9X4X4X,X>X.X.X|.",
"lXlXzXlXzXzXxXzXzXzXzXzXgXgXgXgXfXfXfXfXfXdXdXpXaXeX4X,X.X}.|..XXXOX5XOX5X5XeXeXeXeXeXaXaXaXaXpXaXpXaXaXaXaXaXaXtXaXeXeX8X8X7X9X",
"lXzXlXzXlXzXzXzXzXzXzXzXzXzXzXzXzXzXfXfXgXfXfXfXfXdXsXpXaXaXtXeXeXeXeXeXeXeXeXeXaXaXaXpXpXpXpXpXpXpXpXfXpXpXpXpXpXpXpXpXiXiXiXaX",
"zXlXzXlXlXzXzXzXzXzXzXzXzXzXzXzXzXzXzXgXgXgXfXgXfXfXfXfXfXfXpXfXfXpXpXpXpXpXpXpXpXpXfXpXfXfXpXfXpXpXfXfXfXfXfXfXfXdXpXfXfXdXfXsX",
"lXlXzXzXzXzXzXzXzXzXgXzXzXgXzXzXzXzXzXzXzXgXgXgXgXgXgXgXfXfXfXfXfXfXfXfXpXfXpXfXfXpXfXpXfXfXfXfXfXfXfXfXfXfXfXfXfXfXfXfXfXfXgXgX"
};
