/* XPM */
static char *_a97b021ec034031b79d088d2f1475a3w2cYTplQoU3srSSL[] = {
/* columns rows colors chars-per-pixel */
"64 64 14 1 ",
"  c #FFCA0B",
". c #FFCE0B",
"X c #FFC80D",
"o c #FFC90E",
"O c #FFCE0C",
"+ c #FFD904",
"@ c #FFD309",
"# c #FFD709",
"$ c #FFD40A",
"% c #FFE403",
"& c #FFE104",
"* c #FFE802",
"= c #FFED01",
"- c #FFF200",
/* pixels */
"$ooooooooo------------------------------------------------ooo.oo",
"ooooooo--------------------------------------------------Ooooooo",
"oooo$-----------------------------------------------------oooooo",
"ooo--------------------------------=------------*--------=-ooXoo",
"ooo------=--------------=----------#------------O=-------@--oooo",
"o -------$--------------#-----------o------------o--------o--ooo",
"o---------o--------------o----------o------------oo-------o--ooo",
"----------o--------------o---------#$-----------OOo------$@--oXo",
"---------#$-------------#$-----------------------#$----------ooo",
"-------------------------------------------------------------@Xo",
"-------------------------------------------------------------Ooo",
"--------------------------------------------------------=------o",
"---------------------------=----------------------------$-------",
"--------=------------------#--------=--------------------o------",
"--------#-------------------o-------#--------------------o------",
"---------o------------------o--------o------------------#$------",
"---------o-----------------$$--------o--------------------------",
"--------$$--------------------------#$--------------------------",
"----------------------------------------------------------------",
"----------------------------------------------------------------",
"----=----=*=---*=-*=--*=-%=-------------------------------------",
"---=#---=#$$-=-O#=O$--@#-@@-------------------------------------",
"---#-o--#-ooo$--oo-oo--oo#oo----------------------=------=------",
"----oo---oooo*o-ooooo--oo-oo----------------------#---o--#------",
"----o$-ooooo$.oOo$oo$-$o@oo$--------------------=-ooo--o--o-----",
"---#$---oooooooooooooo---$$----------%----------#--oooo-ooo-----",
"-------------oo----------------------O--------=--o#$-----#$-----",
"-------------oo------------o---------#o-------#--o--------------",
"------------#o-------------oo---------o-------oo#$--------------",
"------------*o-------------oo--------oo-------oo----------------",
"------------$oo------------oo-------*#$o-----o$o----------------",
"------------$oo------------$o-------O=-o-----o#-----------------",
"------------.o$------------=o-------Oo$$-----o-o----------------",
"------------oo-------------O$-------.oo-----o-=o----------------",
"------------.o-------------Oo-------ooo-----o-O$----------------",
"------------Oo------------=Oo-------$o$-----o--o----------------",
"------------Oo------------$$o------- o$-----o--o----------------",
"------------@$o------------oo-------o$-o----o-$$----------------",
"------------$-o-----------=oo-------@o-o-----o#-----------------",
"------------$o$-----------@$Oo----%%.o$$-----o-o----------------",
"-------------o-------------o-o---*.Ooo-------o-o----------------",
"------------Oo-------------o#o*=-.#ooo-------o#O--*=-*----------",
"------------$$------------#$.Oo$-#ooooo-------o-o-O$-O=-*=------",
"------------O#----------------ooo-ooooo--------oo--oo-o-O#------",
"------------$oo--------------$.ooOo$#.$--------$oo-oo-oo-oo-----",
"-------------oo---------------Oo$#$---------------oo$$oo-oo-----",
"------------Oo@----------------o----------------------#$Oo$-----",
"------------#$----------------#$--------------------------------",
"----------------------------------------------------------------",
"----------------------------------------------------------------",
"----------------------------------------------------------------",
"----------------------------------------------------------------",
"-----------------------------------------=----------=-----------",
"--------------------=--------------------#----------#-----------",
"%---------=---------#--------=------------o----------o----------",
".---------$----------o-------#------------o----------o-------*-o",
"@o---------o---------o--------o----------#$---------$@-------o-o",
"oo%--------o--------#$--------o------------------------------ooo",
"ooo-------#$-----------------#$-----------------------------%ooo",
"oooo-------------------------------------------------------%oooo",
"oooo-----------------------------------------------------%+ oooo",
"ooooo----------------------------------------------------.oooo o",
"ooooooooo-------------------------------------------------ooooXo",
"  ooooo---------------------------------------------------ooooXo"
};
