/* XPM */
static char *_60412e4baab44b290e861495b18589bLuaTe9ZcvXs6E1jC[] = {
/* columns rows colors chars-per-pixel */
"64 64 17 1 ",
"  c #0C6624",
". c #2B7320",
"X c #477E1D",
"o c #A9A616",
"O c #B4AB14",
"+ c #B8AC13",
"@ c #BEAE14",
"# c #EBBF0F",
"$ c #E1BD11",
"% c #E6BE10",
"& c #E8C00E",
"* c #F0C20E",
"= c #F6C60E",
"- c #F8C60E",
"; c #FFC90B",
": c #FDC80E",
"> c #FFC90E",
/* pixels */
"                                                                ",
"                                                                ",
"                                                                ",
"                                                                ",
"                                                                ",
"                                                                ",
"                                                                ",
"                                                                ",
"                                                                ",
"                                                                ",
"                                                                ",
"                X                                               ",
"               X$.                                              ",
"               &X;                                              ",
"               $>>>                    X                        ",
"                >>>                    &X                       ",
"               $>>>>                   :>                       ",
"               $>>:>                   $>>                      ",
"                $>:#                   $>>                      ",
"                                       :>#                      ",
"                                       $#                       ",
"                                                                ",
"                                                                ",
"                                                                ",
"                                                      .         ",
"           X                                        XXo         ",
"           $X                                      .$$ >        ",
"            >X                                     @ >>>        ",
"            >>X                                  X.$>>>+        ",
"           $#>>..                              ..$o >:#         ",
"            $#>>oX.X.                       .X.oo >>>           ",
"             $#>>>O$oX.                  .X.o$o >>>>&           ",
"              $#>>>>>>o.XX.X.    .X....X.o$o >>>>>-+            ",
"               o%+>>>>>>$$o$oX.X.o$oooo$o >>>>>>%+              ",
"                 $->-+>>>>>>>>o$o >>>>>>>>>>>=-+                ",
"                  o+ $-+>>>>>>>>>>>>>>>>>>=-+                   ",
"                       o=:-=-+>>>>=-%%%=-+                      ",
"                             $-=-+                              ",
"                                                                ",
"                                                                ",
"                                                                ",
"                                                                ",
"                                                                ",
"                                                                ",
"                                                                ",
"                                                                ",
"                                                                ",
"                                                                ",
"                                                                ",
"                                                                ",
"                                                                ",
"                                                                ",
"                                                                ",
"                                                                ",
"                                                                ",
"                                                                ",
"                                                                ",
"                                                                ",
"                                                                ",
"                                                                ",
"                                                                ",
"                                                                ",
"                                                                ",
"                                                                "
};
