/* XPM */
static char *_10f3bc0610d40c8a8133a18520c85f4JiI3HrtZ1o5Nczkz[] = {
/* columns rows colors chars-per-pixel */
"64 64 256 2 ",
"   c #271D1E",
".  c #0B1038",
"X  c #373130",
"o  c #1A283F",
"O  c #51300C",
"+  c #623804",
"@  c #6F3D06",
"#  c #473C27",
"$  c #5D4117",
"%  c #6A4507",
"&  c #734A09",
"*  c #76520C",
"=  c #755413",
"-  c #765A1B",
";  c #785A17",
":  c #6A4C17",
">  c #7F611E",
",  c #5A4B37",
"<  c #664A25",
"1  c #6D5529",
"2  c #755C25",
"3  c #685937",
"4  c #755C35",
"5  c #7B6329",
"6  c #75633C",
"7  c #7B6636",
"8  c #6E603D",
"9  c #071547",
"0  c #2E3652",
"q  c #19284E",
"w  c #315068",
"e  c #635B44",
"r  c #796746",
"t  c #736A52",
"y  c #4A5063",
"u  c #6D7375",
"i  c #505653",
"p  c #855507",
"a  c #865814",
"s  c #8C5109",
"d  c #956912",
"f  c #AA7606",
"g  c #B77707",
"h  c #AD700E",
"j  c #987526",
"k  c #836C39",
"l  c #8F6E30",
"z  c #B17B26",
"x  c #A05D0E",
"c  c #C97810",
"v  c #89764A",
"b  c #87785A",
"n  c #92774A",
"m  c #847B65",
"M  c #D57164",
"N  c #C93C2D",
"B  c #B48516",
"V  c #B68739",
"C  c #B68C31",
"Z  c #9D8918",
"A  c #C68706",
"S  c #D69A04",
"D  c #C78719",
"F  c #D38A19",
"G  c #CB950E",
"H  c #DCA402",
"J  c #DCA805",
"K  c #E4AC02",
"L  c #E7AC06",
"P  c #ECB303",
"I  c #ECB40A",
"U  c #E9B608",
"Y  c #F3BB04",
"T  c #F2BC0C",
"R  c #F5BA04",
"E  c #EAB712",
"W  c #F2BC14",
"Q  c #F2BB1A",
"!  c #E1AB12",
"~  c #CD9329",
"^  c #D79528",
"/  c #CA9838",
"(  c #D89B36",
")  c #C78A25",
"_  c #E59B2B",
"`  c #E29430",
"'  c #DDA435",
"]  c #E8A637",
"[  c #F3AC34",
"{  c #E8971B",
"}  c #FDCB01",
"|  c #FBC304",
" . c #FDDB02",
".. c #FAD205",
"X. c #F6C518",
"o. c #FBDB13",
"O. c #FEE201",
"+. c #FEE908",
"@. c #F7C322",
"#. c #FEEF2D",
"$. c #9A8457",
"%. c #AF8A4E",
"&. c #988967",
"*. c #948A73",
"=. c #9A9178",
"-. c #8A8370",
";. c #A88C64",
":. c #B3966B",
">. c #B79A6C",
",. c #A69777",
"<. c #B49B74",
"1. c #AD9069",
"2. c #BDA37B",
"3. c #AEA07A",
"4. c #C49A51",
"5. c #D19448",
"6. c #D8A749",
"7. c #CCA358",
"8. c #D8AA58",
"9. c #DDB25D",
"0. c #D3AE49",
"q. c #E4AB46",
"w. c #EBB349",
"e. c #F6B848",
"r. c #EBBB5C",
"t. c #E6B758",
"y. c #F4BC53",
"u. c #F2BD5B",
"i. c #F9BD52",
"p. c #E4AE54",
"a. c #C7A668",
"s. c #DCB466",
"d. c #C4A878",
"f. c #D5B06E",
"g. c #EBBD63",
"h. c #E3BC6C",
"j. c #E6BA65",
"k. c #E3BE70",
"l. c #F2BF66",
"z. c #FDC34C",
"x. c #FBC455",
"c. c #F5C25C",
"v. c #FAC55C",
"b. c #FDCC5C",
"n. c #F7C755",
"m. c #FED25D",
"M. c #EEC165",
"N. c #EDC26B",
"B. c #E4CB62",
"V. c #F4C464",
"C. c #FCCC63",
"Z. c #F2C66A",
"A. c #F4CA6C",
"S. c #FBCD6B",
"D. c #F8C764",
"F. c #FED365",
"G. c #FDD36C",
"H. c #FEDA6C",
"J. c #FDD966",
"K. c #ECC572",
"L. c #EFC975",
"P. c #ECC87B",
"I. c #F4CC73",
"U. c #F9CE73",
"Y. c #F3CE7B",
"T. c #F2C672",
"R. c #FCD473",
"E. c #FEDB75",
"W. c #F5D27C",
"Q. c #FBD57B",
"!. c #FDDB7C",
"~. c #F5D276",
"^. c #EFD37A",
"/. c #FEE36C",
"(. c #FEE274",
"). c #FEE27C",
"_. c #FEE97B",
"`. c #FCF85C",
"'. c #727A8C",
"]. c #96958B",
"[. c #A49C85",
"{. c #B29F81",
"}. c #B7A888",
"|. c #A9A694",
" X c #B2AC95",
".X c #BAB299",
"XX c #A9A28A",
"oX c #B9B7A2",
"OX c #96ACA6",
"+X c #CBB38A",
"@X c #D3B98A",
"#X c #C9B898",
"$X c #D3BC96",
"%X c #C5AC87",
"&X c #C5BDA5",
"*X c #D1BDA1",
"=X c #E19E8B",
"-X c #D9C299",
";X c #EBCA84",
":X c #F4D483",
">X c #FCDC83",
",X c #FBDD8B",
"<X c #F7D886",
"1X c #F6DA99",
"2X c #E7CD91",
"3X c #FEE383",
"4X c #FEEA85",
"5X c #FDE48B",
"6X c #FEEA8C",
"7X c #FDE491",
"8X c #FEEB93",
"9X c #FEED9A",
"0X c #FCE599",
"qX c #FEF19B",
"wX c #FFF095",
"eX c #CCC5AC",
"rX c #C9C2A8",
"tX c #D7C8A9",
"yX c #CDC9B2",
"uX c #D4CDB4",
"iX c #DBD5BB",
"pX c #D9D3B8",
"aX c #DDD1AE",
"sX c #E3CEA6",
"dX c #E9D4AA",
"fX c #E4DABE",
"gX c #E8D8B7",
"hX c #F2DFB7",
"jX c #F4DAA6",
"kX c #F5E5BA",
"lX c #FCEAA9",
"zX c #DDDAC2",
"xX c #DCD6C1",
"cX c #E3DDC3",
"vX c #E5DEC5",
"bX c #E6E2CA",
"nX c #EAE5CC",
"mX c #ECE8CE",
"MX c #E7E1C6",
"NX c #F4E8C8",
"BX c #E7E7D2",
"VX c #E9E6D2",
"CX c #ECEAD4",
"ZX c #EEEDD9",
"AX c #E6E8D2",
"SX c #F2EDD4",
"DX c #F1EFD9",
"FX c #F4F0D6",
"GX c #F4F2DC",
"HX c #F9F4DC",
"JX c #FBF4CE",
"KX c #F6F5E1",
"LX c #F8F6E3",
"PX c #FAF8E6",
"IX c #FEFCEB",
"UX c #F7F8E4",
/* pixels */
"IXIXIXIXIXIXsXa.a.d.f.-X2XjXhXkXkXJX0X8.5.! #.`.#.O.+.O.+.o.R R R  ... .+...P K J P U K 5.=XM F X ].oX&X'.oXoXu X * < 1 4 4 4 r ",
"IXIXIXIXIXHX@Xa.f.d.-X-XsXdXlXkXkXJXlX6.( A U +.+.+.O. . .R T R } } } +.o.Y K K E Q U | 5.M c G 0 ].u iXy |.].X * < 1 4 4 4 4 r ",
"IXIXIXIXIXfXa.a.d.f.-XsXsXhXhXkXkXJXlX{ F c A Y O. .O. .T X.} } } } +.#.X.Q W T X.E U X.c N Q B 0 y y uXy q o + 1 1 4 4 r r r r ",
"IXIXIXIXPX-X:.>.d.d.-X-XdXgXkXkXJXJXlX[ q.B A A  .+. .} L I } } }  .#.Q I W @.X.Q Q | X.{ ` X.z 9 9 0 *Xy . # - 1 2 4 6 k r k r ",
"IXIXIXIXSXd.1.>.2.@X-XsXdXhXkXkXJXJX4XJ.D.D B c ! O...R I I P R }  .R T W X.Q @.Q Q X.E U X.X.Z 9 9 q #X0   2 1 2 4 4 k r r r r ",
"IXIXIXIXgX:.:.<.2.+X-XsXgXkXkXmXkX4X_./.F.e.G A A  .} L I P P P } R Y Y T Y X.@.W E E | E E ! U X 9 . ].X : 1 2 2 4 k 4 r r r b ",
"IXIXIXLX+X:.:.<.%X+XtXdXgXhXmXlX).6X6X4X!.x.] D g K | L P R R P R H K K Y Y @.W Y T E X.U E ! U l . . 3 - - 2 5 4 4 4 r k k b m ",
"IXIXIXCX2.:.:.<.%X-XtXgXfXhXNX).(.4X4X4X5Xu.8.' f B I I P R P L I J P I Y R W W U U X.X.E E J S f   O > 5 2 2 4 4 7 r e b b m [.",
"IXIXPXsX:.:.1.%X#XtXaXgXgXNXhX).4X_.4X4X4XM.6.w.D g x S R H S R E I I T X.U U U | U E E E K Z f f = > - 2 4 3 4 4 r r r m *.[.XX",
"IXIXDX%X1.:.<.+X$X-XdXgXMXNX1X).4X_.!.!.4X(.F.t.( A g f K S P L I I P P | K Y U Y i , X.U A j d * > 2 2 1 1 3 3 e e r u *.[. X.X",
"IXIXhX<.;.:.%X+X-XaXdXgXkXNXG.).8X4X5X4X4X4XG.V.] ~ B f ~ ..K P P E U K U | U | l '.'.Z K f Z d - 5 2 3 , 3 e e t t m *.XX XoX&X",
"IXPX$X;.;.>.+X$XtXsXgXgXNXhXm.6X)._.qX4X(.).I.p.g.p.~ g B X.P Y P I U K K U | J 0 OXOX, h Z 5 - 5 5 1 3 , 3 e e t -.].XXoX&X&XyX",
"IXSX{.;.;.d.+X-XaXdXhXvXNXjXx.4X(.(./.(.H.J.F.!.8.j.6.C h L Y P P Y H H J Y Y j ].OXw X B d < 5 l 5 7 3 3 e t m *.].|.oXoXyXyXxX",
"IXgX:.n 1.%X$X$XsX1X1X5X>XH.3X3X4X4X(.).C.E.F.H.E.t.6.z h A | Y R R H H U K | 7 '.].u = Z : 2 5 5 7 8 e t t m ].|.|.oX&XyXyXxXxX",
"LX*X;.n a.P.Y.Q.F.E.!._.(.>X3XU.E.Q.6X(.Q.6XE.x.b.C.u.p.B g J K P P K K E U Y f y u < f * < 5 7 7 7 8 r t -.].|..XoX&XyXyXxXxXxX",
"NX%Xn 4.S.H.(._.E.E.U.5X4X).4X7X(.E.,X).4X).3XF.{ A.G.y.~ B f A R P K S U K K K # , * ; = 2 7 7 k 6 r m *.[.|. X&XeXyXxXxXxXzXbX",
"sX<.n g._.u.3X4X).3X9X9X4X!.6XqX4XE.,X8XE.b.>XE.[ u.U.l.q.~ B c P Y K S J H H S * % ; - - 5 5 7 k v m =.3. XoXoXyXyXpXzXzXzXAXAX",
"$X;.4.).3X).E.!.!.7X3X4XE.Q.6X6X4XR.Z.8X3XE.S.5Xi.q.>XU.g.q.B h S P K H J H S d * * ; - - 5 7 7 v m =.3..XoX&XyXpXzXzXMXMXAXMXAX",
"%X4.l.!.!.J.b.R.Z.8X5X8X!.W.9XE.!.3X5X9X)._.r.5Xz.' ,XA.Y.Z./ h A K J K J A * % * = ; - 5 5 7 $.$.,.XX.XoXeXyXyXiXzXMXzXmXAXAXAX",
"<.z Q.1X3XH.J.>XW.qX6X6X8X9XH.b.i.J.6XQ.Q.R.<X8Xx.( 5Xt.l.R.u.~ f S J J f & % * ; = - > 5 7 v &.3.XX.X&XyXyXpXzXzXMXAXAXmXAXSXFX",
"<.z R.,XQ.J.b.4XqX8X!.!._.6XG.D.b.J.8XZ.E.j.8X).e.' >X!.3XS.c.F p A S p + % = * * ; - 5 7 v &.3.}.oX&XyXaXpXzXzXMXbXAXAXAXAXFXFX",
",.%.E.W.Z.).R.!.5XQ.3XI.>X6XQ.L.6XQ.~.8X9X:X5XE.i.] !.3XE.,XF.x @ g & + % & * = ; ; - 5 l &.3.}..XrXyXaXpXzXzXMXbXmXmXCXFXFXZXGX",
"1.n G.9X5XQ.Q.T.7XI.9X<X9X4X4X0X6XR.K.lXqX6XE.>Xb._ ,X3XF.7Xe.s @ p + & & * * = = > 0.n.c.n.8.&XrXaXpXzXzXMXMXMXAXAXCXSXZXZXGXGX",
",.%.n.qX5XA.6X,XqX9X6X3X7X9X>XI.5XR.0XqX8X4XM.N.H.` >X!.g.E.~ + @ % & % % & = = ; 0././.).G.x.;XaXaXzXzXMXMXMXAXCXmXSXZXFXGXZXUX",
"<.M r.8X7XqX6XQ.9X9X6X~.5X4XR.8X8XN.<X8X3X!.W.<X)._ q.G.^.b.s O % @ % % % : = : C /.c.,X).U.E.S.aXzXfXMXMXmXmXmXSXSXFXFXGXGXGXUX",
"<.<.c.8X3X5X6X<X8X_.4X>X5X).G.V.5X9X,X3X3XQ.4X4Xm._ r.E.m.F + + + p d % % = % j /.E.).4XH.U.W.E.W.MXMXNXmXmXNXSXSXFXFXZXFXGXGXUX",
"<.2.M.>Xt.4X4XQ.>X3X8XA.W.8X3XW.9X6XZ.Q.!.A.A.G.e.] D.[ c @ O % / n.z.~ a % ; B.(.E.E.H.H.~.L.6Xm.1XAXmXNXSXSXSXFXFXGXGXGXGXKXKX",
"}.%XM.3X:X3XE.I.3X4X5X>X5X3XU.8XqX(.wX<XL.5X<XR.C.` g s O + C n.J.y.C.H.z.z 0._.G.G.E.R.F.F._.).E.F.kXSXNXFXDXDXFXFXGXGXKXGXKXKX",
"%X#Xu.).8X).E.,X7X>X,X8XZ.Q.^.W.wX).4X8X8XqX_.u.).z.z + V F.(.H.b.N.7XE.n.z./.C.Q.E.Z.:XQ.x.H.H.Q.H.Q.DXSXFXFXGXGXGXKXGXGXGXUXGX",
"#X#Xl.E.E.G.3XN.,X,X0X_.!.8X6X4X4XE.Q.>X4X).J.m.m.i.m.n./.C.G.R.S.!.4Xx.[ _.(.W.9X3X~.5X).G.H.R.I.:XH.1XGXSXGXFXGXGXGXGXUXUXGXUX",
"&X*Xl.E.!.!.4X5X5X7X9X).4XE.G.H.).E.J.H.).(.C.n.x.m.b.J.Z.j.E.G.D.G.J.e.m.(.E.4X_.E.).3XR.N.3XR.I.<X5Xb.kXHXFXGXGXGXGXKXLXHXUXKX",
"*X*Xl.R.g.U.G.E.E.R.!.b.b.S.F.E.).).J.J.c.R.m.J./.(.G.G.Q.,X3Xc.g.S.b.J./.!.R.F.E.R.G.H.F.>XW.G.H.3X>XG.C.FXGXGXGXKXGXKXUXLXGXKX",
"*XtXl.>XK.Q.!.).A.l.3XF.J.H.m.S.!.E.x.C.V.E.H.H.D.I.R.S.Q.!.H.F.9.U.z./.F.,XF.T.E.y.x.b.z.H.I.,XF.R.S.R.b.<XLXGXGXGXDXLXLXHXKXKX",
"tXaXk.>X3XQ.m.R.Q.V.C.E.E.H.F.u.R.m.e.v.H.H.F.C.g.:X3XI.:XE.b.x.C.Q.J.F.g.3XU.t.:XS.v.i.b.J.3XI.W.A.K.I.:XC.1XKXGXGXHXKXLXKXGXKX",
"uXpXg.S.<X:XC.E.!.F.e.D.E.F.v.>X!.v.v.C.F.G.G.R.E.7X!.l.h.Q.e.[ e.H.).R.,X4XE.<X3XY.Z.U.E.b.C.R.,X~.3XW.<X3Xe.NXKXHXKXPXKXHXKXKX",
"tXxX9.i.8XF.S.E.G.C.S.3XE.x.i.Q.v.x.S.y.q.E.S.U.G.E.E.I.P.E.i.i.z.(.E.>X).G.G.E.!.~.;XY.I.F.R.R.Z.:X4XE.).H.x.NXKXDXKXLXKXKXHXKX",
"aXcX=X] C.!.M.D.G.G.E.R.C.u.V.R.y.x.G.D.I.!.D.K.D.S.C.C.3XC.u.V.F.F.E.!.>XE.I.U.N.:X9X^.:XQ.R.M.Q.6XH.m.C.b.x.gXKXDXLXKXKXHXKXKX",
"iXgXpX<._ z.R.i.C.R.R.F.G.w.T.U.I.C.R.C.F.e.S.8.Y.R.c.c.C.x.6.r.F.V.E.D.Y.>X1X<XM.,X7X5X~.T.!.j.5X!.R.C.y.b.e.-XGXKXPXKXKXHXHXGX",
"pXgXaX{.n _ ] [ U.U.R.F.S.S.5XQ.>XU.C.S.S.q.U.Y.,XS.g.s.u.i.i.b.u.Y.3XD.h.,XS.7X!.,X5XE.Q.W.:X5X3XN.L.R.V.t.c.-XGXKXPXGXKXGXKXDX",
"gXfXgX}.n n l ] S.l.I.R.D.S.R.V.D.[ i.Z.D.v.C.E.>Xg.I.4.Y.D.e.b.Q.5X,XE.5X5Xc.G.Q.h.,XQ.E.S.P.5XQ.Z.^.3XS.s.c.-XKXPXLXHXKXGXKXKX",
"iXcXcX#Xn v v ( v.T.W.T.l.g.V.t.U.{ l.j.K.D.v.T.Y.7.:XY.<XU.x.S.!.E.>XG.S.W.T.T.Q.,XY.~.F.S.3X!.R.I.L.M.F.E.w.-XLXIXKXGXKXGXHXGX",
"gXcXMXtX{.n r 5.v.5XW.g.Y.k.>X,X>X_ D.8.9.Q.Z.7.K.:X,XQ.s.>Xx.D.G.v.R.S.V.s.h.k.I.E.I.:XE.C.E.S.G.Q.^.1XG.n.V uXPXPXGXKXGXGXGXHX",
"cXcXNXcX*X1.b %.b.E.S.<X3X,X!.>XG._ e.Y.,Xs.j.T.<X!.>XS.;X,Xu.e.v.r.T.K.K.k.5X,Xs.I.>XN.K.G.N.I.R.A.Q.5XC.4.}.FXPXPXGXKXGXHXGXGX",
"cXcXMXNXcX*X,.%.x.G.R.5XQ.r.:XF.b.~ _ Q.5Xj.:X!.j.:XE.C.l.k.D.[ y.N.8.Y.h.9X3X>X<X,XE.Y.,XE.s.P.>XN.M.!.q.$.AXGXIXKXDXKXGXGXHXGX",
"cXnXvXNXnXcXeX+Xe.D.l.Q.R.U.3XC.v.6.F v.R.Q.6XA.k.7XQ.C.r.P.g.F w.S.W.,XK.7XE.Q.Y.h.!.!.).G.R.,X3XS.Q.F.%.rXFXGXIXKXGXUXGXGXGXGX",
"vXvXCXSXSXNXnXfXi.V.8.U.U.Z.N.C.v.g.) e.I.D.S.b.~.K.Q.v.D.Q.7.5._ D.E.Q.4X>XQ.R.I.,X7XR.>XE.C.3XC.n.F.6.3.DXDXUXPXGXGXHXGXHXHXFX",
"vXnXmXSXFXFXFXSXZ.S.:X7XC.c.<XD.v.U.6._ D.8.j.b.p.f.>Xu.u.I.:X6.h ] c.R.K.I.Y.U.N.:X!.S.Q.C.c.~.x.y.8.$.zXUXKXPXUXDXUXGXFXGXFXFX",
"vXnXmXSXFXHXHXGXl.v.7X3Xv.D.T.U.S.U.5.^ S.s.;XE.D.:XI.D.Z.S.>X6.x c ] R.j.9.!.K.Y.:X>Xj.Y.D.j.N.D.n.l }.KXKXKXPXUXDXHXGXFXGXFXFX",
"nXVXSXSXDXLXGXLX;Xu.Q.D.U.Z.8.W.v.N.f.( y.,X5Xv.v.8.K.I.V.G.I.g.a s F i.S.:XQ.7.<X3X>Xs.:X>Xh.k.R.%.,.mXKXZXUXPXKXZXUXFXGXZXGXFX",
"VXVXDXSXGXGXSXGX;Xu.Y.l.D.S.Q.Q.D.A.,X6.] >XR.c.V.V.>XZ.M.n.V.V.4.j x _ u.E.S.I.7XQ.F.Q.>XQ.Q.!.t.n fXHXKXZXUXUXZXKXHXFXGXGXHXFX",
"VXVXSXSXDXGXSXGXdXe.l.s.A.u.y.u.j.I.G.6.^ D.V.g.A.c.b.h.h.r.r.M.U./ & h ] D.V.T.W.Q.C.t.8.A.S.b.V .XHXGXKXUXPXUXZXGXUXDXGXGXFXJX",
"SXZXDXGXGXGXSXSXhXw.l.f.A.r.P.t.7.W.V.p.c w.g.8.M.c.x.8.a.W.N.N.Z.p.z & F w.S.8.h.E.M.j.;XY.b.%.&.AXGXGXUXUXPXUXZXKXGXDXGXFXFXSX",
"CXDXDXDXKXDXGXSXcXw.U.0X>Xy.U.c.;X!.r.8.) ] k.4.L.D.w.B.:XC.j.f.k.g.5.d a ^ y.U.<XR.M.s.W.E.6.v yXFXZXGXUXUXIXZXZXGXFXFXFXFXFXJX",
"CXDXDXDXDXDXSXSXMXu.S.W.l.e.w.x.h.g.6.f.8.^ V.,X>Xr.q.M.!.w.M.a.:Xt.V = O x ` A.E.U.R.7.N.c.l .XFXZXGXGXZXUXPXZXFXGXZXGXGXFXSXCX",
"DXDXDXDXDXDXDXSXCXr.[ A.M.p.9.w.N.W.j.s.k.^ u.U.w.q.s.M.I.Z.r.I.A.C : $ < + z [ ] w.r.y.D.V =.VXZXGXZXZXZXUXUXZXGXZXFXGXFXFXSXSX",
"DXDXDXDXDXDXSXSXDXf.^ w.n.0.7.c.y.v.r.U.6.) w.V.w.t.7.s.g.r.w.0.j < b .X{.r & z c D ( F ) n cXDXZXZXZXZXZXUXKXAXFXZXFXFXFXSXmXSX",
"ZXZXDXDXDXZXDXSXFXgX4.) q.p.K.D.q.' / ) a & ` ] q.N.7.N.w.q.V - v }.cXMXpX#Xr a x a a a k tXDXZXZXZXZXZXDXUXZXZXZXFXFXFXFXSXmXSX",
"ZXZXZXZXZXZXZXVXCXcXm l c ( q.~ z a k k &.=.l C ' q.V.x.( l 4 ,.iXCXSXmXmXcX&Xb < < r =.eXDXZXVXZXZXZXAXGXHXAXZXZXSXZXZXSXmXAXSX",
"ZXZXZXZXZXZXZXZXSXSXaX{.n j l n ;.}.*XcXNXMX=.+ ; z B j 5 &.eXSXSXSXSXDXSXCXCXcX X.XpXBXSXCXZXZXZXAXZXZXGXKXZXZXFXAXFXSXSXSXmXmX",
"VXZXVXZXVXZXZXVXSXCXSXSXCXxXcXNXSXHXFXSXCXmXtX;.v k n &.rXbXCXCXCXAXCXCXSXCXCXCXCXCXVXAXCXCXVXZXAXZXAXAXUXZXAXZXSXSXFXFXmXmXmXAX",
"ZXZXZXVXZXVXZXZXSXSXDXDXGXDXDXDXCXSXmXSXCXmXmXmXMXcXcXCXCXCXCXCXVXCXCXVXCXCXVXCXVXVXVXZXZXZXVXVXZXZXAXCXGXZXAXZXSXSXZXJXmXmXFXyX",
"VXVXVXVXVXZXVXZXDXDXCXCXCXCXVXCXCXCXCXCXCXSXSXCXCXCXCXnXBXCXVXmXCXCXVXVXVXVXCXVXVXVXVXCXAXVXVXZXAXAXCXCXGXAXZXZXAXCXSXCXAXmXAX X",
"BXVXZXVXVXVXVXVXVXVXVXVXVXCXCXVXCXSXCXCXSXCXVXVXVXBXnXAXVXVXVXVXVXBXVXVXBXAXAXAXBXBXBXBXBXBXBXBXBXAXAXAXZXAXAXSXmXSXmXmXAXAXzX=.",
"BXVXVXVXVXVXVXVXVXVXVXVXVXVXVXVXVXVXVXVXnXVXVXVXnXnXVXBXnXVXVXVXVXVXVXVXVXVXVXVXVXBXBXBXBXBXBXBXBXBXAXAXAXAXCXCXmXSXmXAXAXAXyX*."
};
