/* XPM */
static char *_84173bd8d45499eb3aba71f20b6ade6ZMl0a0cz1I8vDNj6[] = {
/* columns rows colors chars-per-pixel */
"64 64 256 2 ",
"   c #030509",
".  c #09141A",
"X  c #0E1016",
"o  c #2A0E11",
"O  c #0D172B",
"+  c #162330",
"@  c #2B3231",
"#  c #2B2120",
"$  c #500615",
"%  c #66061A",
"&  c #740717",
"*  c #541128",
"=  c #770925",
"-  c #6F122C",
";  c #57393C",
":  c #4E322E",
">  c #6F2C32",
",  c #4F2A17",
"<  c #3A4837",
"1  c #35492B",
"2  c #3C6824",
"3  c #4A5738",
"4  c #4B4F32",
"5  c #5B6839",
"6  c #4B6C33",
"7  c #68703A",
"8  c #5E6727",
"9  c #2A3744",
"0  c #323847",
"q  c #1C2C43",
"w  c #593C42",
"e  c #703548",
"r  c #394448",
"t  c #374C4D",
"y  c #3B5F6F",
"u  c #454849",
"i  c #4A5659",
"p  c #565659",
"a  c #50504A",
"s  c #664847",
"d  c #765548",
"f  c #775857",
"g  c #6F4E51",
"h  c #54664D",
"j  c #687844",
"k  c #6D7056",
"l  c #565B63",
"z  c #4F5767",
"x  c #6B5A63",
"c  c #5B6468",
"v  c #5A6675",
"b  c #5A7866",
"n  c #666969",
"m  c #786967",
"M  c #646A76",
"N  c #6B7378",
"B  c #757979",
"V  c #73736C",
"C  c #88021B",
"Z  c #95021D",
"A  c #8A0724",
"S  c #980827",
"D  c #891837",
"F  c #991635",
"G  c #94132B",
"H  c #A70727",
"J  c #B80429",
"K  c #A81636",
"L  c #B81538",
"P  c #B20E32",
"I  c #8E2935",
"U  c #AB243B",
"Y  c #CB0F3A",
"T  c #E90F3B",
"R  c #8C4D2D",
"E  c #A96B35",
"W  c #D56C3F",
"Q  c #B31A43",
"!  c #873846",
"~  c #903149",
"^  c #AF304E",
"/  c #9A264D",
"(  c #D31B46",
")  c #EC1948",
"_  c #CB2E51",
"`  c #E5244D",
"'  c #904F52",
"]  c #AE5055",
"[  c #896559",
"{  c #926853",
"}  c #AF6B52",
"|  c #8F5C69",
" . c #B45362",
".. c #956965",
"X. c #887975",
"o. c #977976",
"O. c #8E706B",
"+. c #A57877",
"@. c #AD6E6A",
"#. c #CA646D",
"$. c #6EA71E",
"%. c #78C805",
"&. c #78884B",
"*. c #7B8A54",
"=. c #758D4B",
"-. c #7A8875",
";. c #5C8B6F",
":. c #9DB423",
">. c #F19637",
",. c #F6A63A",
"<. c #FAA934",
"1. c #D6B031",
"2. c #8BD510",
"3. c #91D62A",
"4. c #9FE915",
"5. c #8C9C5A",
"6. c #869756",
"7. c #818F52",
"8. c #8DA259",
"9. c #91A35C",
"0. c #95AA5B",
"q. c #9AB05D",
"w. c #8BA74B",
"e. c #8A9861",
"r. c #8E8D79",
"t. c #AF8874",
"y. c #94A462",
"u. c #9AAC65",
"i. c #9DAD69",
"p. c #97A767",
"a. c #9EB363",
"s. c #9FB16B",
"d. c #96A875",
"f. c #A2AE6A",
"g. c #A1AC67",
"h. c #A2B565",
"j. c #A5B966",
"k. c #A3B36B",
"l. c #A9B66C",
"z. c #A5BA6A",
"x. c #ABBC6B",
"c. c #AABB67",
"v. c #AAB572",
"b. c #ADB974",
"n. c #A6B673",
"m. c #A9B272",
"M. c #B09957",
"N. c #D59356",
"B. c #D29152",
"V. c #ECAB44",
"C. c #F5A944",
"Z. c #F5BB4C",
"A. c #F9B745",
"S. c #F4BD52",
"D. c #E9B454",
"F. c #C68B78",
"G. c #EAB776",
"H. c #D3A469",
"J. c #AEC06D",
"K. c #B1C36D",
"L. c #B2C371",
"P. c #AFC170",
"I. c #99D144",
"U. c #F3C16B",
"Y. c #DBC530",
"T. c #6D7783",
"R. c #757C85",
"E. c #737B93",
"W. c #5A7B8C",
"Q. c #957485",
"!. c #D67688",
"~. c #7A8388",
"^. c #7A8796",
"/. c #73878C",
"(. c #708CAB",
"). c #589AB6",
"_. c #858887",
"`. c #848C98",
"'. c #88949B",
"]. c #959799",
"[. c #958C8B",
"{. c #A48A86",
"}. c #B58883",
"|. c #A99794",
" X c #B09592",
".X c #9CA599",
"XX c #B1A996",
"oX c #8A99A4",
"OX c #959CA7",
"+X c #8995AD",
"@X c #8EA2A5",
"#X c #98A4A9",
"$X c #9AA9B5",
"%X c #8DA1B9",
"&X c #A5A9A9",
"*X c #B8A6A7",
"=X c #A3ADB7",
"-X c #A4B2BC",
";X c #ABB3BC",
":X c #AAB5B8",
">X c #B5B8BA",
",X c #AEB5AB",
"<X c #B29BA8",
"1X c #C7908F",
"2X c #CDAF8E",
"3X c #D3B0A8",
"4X c #ECB9B2",
"5X c #E6B090",
"6X c #E4C588",
"7X c #E3C0BA",
"8X c #ACBCCC",
"9X c #A7B7C7",
"0X c #B2BAC3",
"qX c #B3BDCA",
"wX c #B7BCC4",
"eX c #ACBED1",
"rX c #A6BCD1",
"tX c #B2BED2",
"yX c #9DB3C4",
"uX c #B8C2CC",
"iX c #AEC1D3",
"pX c #B4C4D4",
"aX c #BAC5D4",
"sX c #B5C5D9",
"dX c #BCCBDB",
"fX c #BAC8D7",
"gX c #AEC0CC",
"hX c #BCCDE3",
"jX c #B7CAE4",
"kX c #BAD2E9",
"lX c #A7C8EA",
"zX c #C3CAD5",
"xX c #C3CDDC",
"cX c #C6CBD6",
"vX c #C5D1DD",
"bX c #CAD2DC",
"nX c #CDD1D6",
"mX c #C3CFE1",
"MX c #C4D1E3",
"NX c #CBD4E3",
"BX c #CCDBEA",
"VX c #C7D7E9",
"CX c #D3DAE5",
"ZX c #D2DDEA",
"AX c #D5DBE6",
"SX c #C7DDF2",
"DX c #DBE3EB",
"FX c #D6E1EA",
"GX c #DBE6F1",
"HX c #E1E6ED",
"JX c #E4E9ED",
"KX c #EAECEE",
"LX c #E6ECF2",
"PX c #EDF2F4",
"IX c #F4F8FA",
"UX c #B1C0A2",
/* pixels */
"MXMXCXZXDXHXHXJXJXJXIX;XnXIXIXIXPXPXPXKXGXDXDXDXZXvXhXbXMXxXsXhXCXVXkXSXBXSXSXVXkXkXBXDXGXFXBXVXSX$XtXZXBXVXMXVXkXlXlXlXlXlXlXlX",
"MXNXNXZXZXHXJXJXJXJXIX;XcXIXIXIXPXPXPXGXFXFXFXBXVXhXhXdXmXMXmXhXBXZXVXkXkXkXkXkXkXkXBXDXDXFXVXVXSX$XaXGXZXBXBXVXVXVXkXVXkXSXSXjX",
"NXCXZXZXDXJXJXJXJXJXIX>XnXIXPXPXKXJXJXFXZXBXhXhXkXdXdXdXmXMXmXdXmXBXZXVXkXkXkXSXBXVXZXDXDXFXvXMXGX=XzXGXZXBXZXBXFXZXZXSXZXBXVXVX",
"BXDXAXZXAXJXJXHXDXHXIX0XzXIXKXJXDXFXDXFXvXhXdXdXdXdXdXfXdXxXMXvXmXNXBXZXLXDXDXGXDXFXDXJXJXFXMXBXJX$XdXFXZXZXBXVXVXVXVXVXVXVXVXVX",
"xXCXDXDXZXHXKXJXGXHXPXuX>XIXDXFXBXBXBXFXdXfXsXpXfXfXfXfXfXdXMXMXNXNXNXZXJXDXDXJXDXZXDXDXHXZXBXZXGX=XtXVXNXMXMXMXjXmXjXmXjXmXjXVX",
"xXNXDXJXHXJXPXPXJXHXPX0X;XLXAXBXbXkXdXdXdXpXiXpXgXpXfXdXvXVXNXNXCXNXNXNXBXCXFXFXDXDXHXHXAXAXZXDXFX#XtXmXhXmXhXhXmXjXjXjXjXhXjXjX",
"sXxXNXHXKXPXAXAXPXJXLX;X$XBXvXdXhXdXfXfXsXpXiXiXsXfXfXdXvXBXbXvXxXxXsXsXpXfXfXdXMXCXDXHXHXAXAXNXVXOXeXhXpXiXhXdXjXjXmXmXmXjXjXsX",
"eXtXaXxXAXPX].,XIXJXLX0X@XVXfXfXsXsXsXpXpXpXpXiXgXiXsXdXvXbXvXpXpXpX8XrXrXrXiXiXaXMXCXAXAXCXMXmXmXoXrXmX$XT.sXtXtXjXmXxXjXsXtXeX",
"9X9XiXfXbXKX,XuXIXKXLX0XoXkXsXpXsXsXsXiXsXjXfXgXpX8XpXsXvXdXpXiXrXrX9XyX9XrXrXtXsXmXNXCXNXNXxXxXmX+X8XhXyX~.tXaXaXmXmXaXaXtXsXsX",
"9X8X8XiXvXBXUXuXIXKXHX0XoXhXiXiXiXiXsXsXfXdXdXdXpXpXaXaXdXaXiXiXrX9XrXrXrXrXeXsXdXxXMXNXNXmXmXxXMXOXeXhXyXoXqXtXaXcXxXtXtXsXaXdX",
"8X8XgXgXfXuX,X:XKXKXJXqXoXjXiXrXrXrXiXiXfXvXNXvXdXaXaXdXdXaXpXgXeXeXrXtXiXpXfXxXxXmXNXNXNXNXMXxXmXOX8XhXyXOX9XxXaXaXtXsXtXtXsXmX",
"aXaXgXgXpX-X-XyXAXCXCXqX^.jXiXyXyXrXrXgXsXdXbXCXvXzXxXCXbXvXxXfXfXdXsXeXpXsXdXNXAXAXAXAXNXNXMXdXtX'.8XhX9X$X;XaXaXsXdXsXjXdXcXmX",
"aXaXuX8XgX$XyX@XkXkXdXgX^.kXgX$XgXyXrXrXrXpXbXAXCXcXnX0XbXbXvXaXaXtXgXyX8XdXbXcXbXNXxXxXvXtXpXfXtX'.8XjX$X$X9X0XtXaXaXtXtXmXcXaX",
"uXuXuXgXgX$X9X@XdXdXdXgXoXjXiX%XpXgXpXgXeX9XuXNXnXnXyXT.vXaXaXpXpXqXgX-XpXcXbXzXzXzXzXzXcX9X9XsXsXoXtXVX9X=X;X9XtXmXdXcXmXcXcXdX",
"nXcXaXuXpX$XgX@XdXdXdXgX^.dXsX$XpXvXnXfXxXoX$XhXfXaX%X9XvXfXaXpXsXdXvXzXcXbXNXbXbXbXmXdXhX8X8XdXdX^.+XyX`.8X9X=XzXmXcXmXmXcXaXdX",
"nXcXaXgXiX@XgX^.fXdXpX-X'.gXyX$X:X0X:X-X-X'.-X=X-X9X^.OX9X-X$X`.;X;XgX:X;X:X>XgX;X;X;X=X:X=X-X;X0X@X'.OXT.9XtX$XzXmXmXcXmXdXaXdX",
"nXcXuXgXgX@XfX@XaXdXgX-.n B '.]..X&X#X&XOX~.#XOXOX].T.^.OXOXOX`.,X&X,XOX&X#X&X:X=X&X=X,X;X&XB x ~.V _.[.'.b 0X$XdXxXvXxXdXdXdXdX",
"zXaXgXgX-X$XdX@XzXCXuX_.c ].M /.=XuXuX0X$XoX9X9XqX=X%X$XqXaX0X=XtXzXtX;X8XqXuXuXzXzXzXzXcX9XR.z a l M oX@X~.T.'.dXvXxXcXxXmXMXdX",
">X:XgXgXyX$XsX@XaXHXnX'.M gX].n ~.$X;X0XOXoX9X9XqX0X#X0XuXuX0X%XqXqXqX9X0XqXwXuXwXwXuX0XwXQ.z u n l /.OX@X'.'.c aXNXbXNXNXNXMXbX",
"`.-.r..X-.'.iX@XgXBXcX'.c 9X$X'.OX+X$X-X$XoX9X;X9X9X].OXqXqX;X<X=X9X0X;XqXuXzXuXuXaX9XqXoXz p i R.T.^.OX@XoX9X-.N $X9XyX9XrX8XeX",
"OXn h k h 6 =X%X9XBXcXoXn 0X=XOX9X#X=X-X|.=XyX0X-XN X.c M M M X.v v M R.qX0X0XqX;X<X0XoXM n i N R.M T.OXOXR.'.^.Q.(.E.E.%X(.(.%X",
"E.t 4 h a 1 #X-XgXcXbX.Xm 0X:X#XuX-X0X:X[.OXqXwX;Xc { x v M v x M n M T.gXqX9XaXn O.OXT.T.z M +XT.u T.=XoXi N /.^.+XE.+X+X+X%X%X",
"i u 3 4 < 3 k N R.V _.|.p qX;X].wX;X#Xr.n _.aXaX=Xz @.m v M M l o.M c T.9X=X9X*X].%XT.R.l c ^.'.T.i T.=X@Xt ~.^.oX+XE.E.E.E.(.%X",
"v a 1 < 1 t a r r u n ].u OX>X&XbXcX].o.x O.>XwXOXz @.B M M T.f o.v M M =XX.OX{.OXV Q.c M ^.`.OXR.z R.;X@Xi ~.'.^.$X+XQ.E.W.(.%X",
"9X~.@ 1 r @ t t u u ~.,Xp p ].B ].].r.Q.s m ]._.}.n } B N [.v +.}.X.B v ]...o.{.r...m M oX[.[.#X`.M ^.:X@XoX$XoX^.-X(.E.M z W.E.",
"'.h 1 < 9 < t l t p '.,Xn u O.O.p x V t.: _.r.m @.m @.X.Q.t.n O.+.f +.M N | B o.O.[ [.oX]. Xo.].'.T.'.-X#X@X9X@X(.$X@X$X+XB l M ",
"1 2 6 < r < u i r n OX,XX.a [ { m B !.}.w ^ ' ! { m [ O.n ..m g : g ..' / ' Q.m K ' Q.&X|.t...X.OXT.'.;X@X$XgX@X@X$XgX:X$XOXB l ",
"t + @ < r 3 u r r V '..XO.d [ @.' ' _  .f Q Z S ^ ^ ~ ~ U  .!  .@.D ' * Y ( ^ w Y _ ^ !._.g g r T.M ^.-X$X^.M /.$X^.-X-XOX#XN < ",
"< < < t z k k i i k k ,Xm 4 7 ] Q A Q.( / D > L T ^ G I .._ Q / +._ ^ F K ` Q > Q ) ^ Q.T.q 9 O 0 c M OX#X~.B n ^.B ].~.R._.~.V ",
"i V N i v B B N M _.B &Xx 1 > Y D ' | Q ( A p - Q L e X.|.' ( e {._ _ ' - Q Y g > / e +.q 0 q z q z x ].@X_.#XN ~.R.'._.~.B ~.N ",
"i b c t M B N N c N N &Xl u # - S [ x = Q ' M ~ J H e {.}.' J e {.] F.+.^ S = [ {.e : Q.0 x 9 q O r p ].@X-.].N _.-.`._.R.B ~.B ",
"i c c c n N n n l -.n &Xl e L # - +.f J @.<Xn / _  Xg V +. .J e o.@.@.O.~ ( D ' 1X| e | m 1X0 + O 0 n OX'.V -.b V M -._.r.V -.-.",
"u c l @ i B n n i X.X.,XM s T U o o...H #.+.V U #.*Xx O.@.~ D ! r.] ..[ D Q A ; {.g e [ [ t.p O q 0 V #X.X6.e.e.e.e.e.r.e.r.e.5.",
"*.-.t . 5 6.7.=.&.7.k _.V s L H S @ O.G o.@.' ^  .{.! ( @._ - e ! K  .[ A ^ ~ ! {.* $ ; ' ..e e O t *..XUXp.d.p.d.p.p.d.d.r.p.d.",
"=.j @ . 7 =.=.=.*.k | f b s S H J d V +.XX{ I +.@.o.* L _ ^ ^ ~ P T _ _ Y !.<XY !.^ F - H U ^ ` / B X.&X>X|.XXXX|.&X|.XX|.[.[.|.",
"d.k @ X $.I.a.XXd.e.o.o.V ~ J H Z ] ' a |.1X1Xe ^ ..* ( ` / 1XF A ( ) _ ^ U ! Y ( _ Q % K T _ - @.*XN OX*X{.|.|.|.{.{.|.|.{. X|.",
"X.m X 4 %.%.2.3.3.:.k { 4 x S Z Z D D : s  .| C K ] K D _ S t.^ % ! ( ) ^ ~ % K ) Q Q.e : L ` - . Q.3X=X>X X*X|.|. X<X*X<X*X*X*X",
"|.[.B {.=.%.%.%.2.2.:.I a y w.Z C ' ] Y / ! - & P U ! = F C .. .o K U J / O.w = L L +Xe * G G = O s 2XOXt.N.N.N.N.B.B.N.N.B.N.B.",
"}.}.*Xt.@.:.%.%.2.2.:.:.r t 4.7 ' 3 t.Z P - # A Y S e I K S  .' : Q ` L D O.; P Y C <XM X J Z % O @ { |.H.A.Z.S.S.Z.Z.S.S.S.Z.S.",
">.B.H.>.>.>.1.1.2.2.2.4.$.2 4.3.[ @ @.& A ^ : % = A e e Q U #.[ w H ` Y / m * J L = Q.`.X H S S O . # #XG.A.Z.Z.Z.Z.Z.Z.S.Z.S.S.",
"V.D.D.V.V.V.V.V.1.2.2.2.$.2 4.4.d s #.L L ' , & A % f e Q Q 1X{ # D Q H [.y $ G F H ! {.  % A J D 0 + ]..XZ.Z.Z.A.Z.Z.Z.Z.Z.Z.Z.",
"V.V.,.V.V.V.V.V.<.:.2.2.%.2.=.6 $ ..] J I R o C & - ' - A ^ 6X..$ - S ^ ].i $ = S S 1X Xe A H H !.4Xm '.2XH.A.Z.Z.S.Z.Z.Z.S.Z.S.",
"V.V.C.C.>.C.>.C.C.Y.2.j h + O O o ..F H ] K > $ $ 1X3X- S  .3X4X> A H !.4X#.% A & | 3X3X7XF Z S }.3X3X,XU.p.S.A.A.A.A.A.A.A.Z.Z.",
">.V.>.,.C.>.C.C.A.7 =.].+ . . X $ { G } K 1X3X% - t. .> - ' 1X4X] % ^ o.4Xt.I D G  X[  .#.G Z - # e ^ |.G.B.t.<.A.C.A.A.A.A.A.A.",
">.,.,.,.>.C.,.,.N.+ + h O .   . a } } A I 4X4X> - W C - e M.] @.' = g : @.#.W | 3Xd , = Z ^ w R o % & ].G.>.Q.N.<.C.A.,.A.<.Z.Z.",
"V.,.,.,.C.C.C.C.d O     X . .   x O.[ e R M.}.f ' } A I [ ; > & R l g w U L E Q.2X, # % = t.m E , % & ].H.>.t.r.<.<.<.<.<.<.<.A.",
"V.,.,.A.C.C.C.C.@ .     X O .   ; E { s R W - [ D * = ' p > , & { s ' w - I B.R.t.} { > % [ |.H.} = F.UXXXH.G.^.XX2X6X6X6X6XU.6X",
"<.<.<.<.<.<.A.t.+     X X + . . ' D.{ ; d ] % +.! 4 I m m f s $ X.s d 4 & > V g +.k *.D > g m 3 l W.*.e.d.d.d.-.v -.n.d.d.UXn.n.",
"U.G.G.G.G.6Xt.@ O @ t + @ . O . a O.[ s h ! : t.s : > r d s : u 3 4 4 : G : < : s 4 4 #.} 4 3 6 h ).b 7 *.8.p.0.*.y.y.u.u.i.s.s.",
"UXL.UXL.n.d.d , < u z q + + 1 @ 4 4 d 4 4 0 1 s < : e < : 1 b ;.6 4 4 1 X.k 6 6 8 5 5 { !.k 7 7 5 ;.;.=.*.8.8.d.p.s.p.u.u.s.s.s.",
"n.n.s.z.m.c d } @ @ T.q @ 9 q @ 5 5 3 4 3 0 4 4 3 h l a 6 3 i t 3 5 5 8 b c 5 5 5 7 7 7 k k =.=.=.=.=.7.*.*.*.y.p.p.p.p.u.s.s.s.",
"b.b.b.b.b.*.4 @ # u v v @ @ 1 3 5 j j j h @ h 7 j c a j j 7 r < 7 7 j &.k 5 7 7 =.=.7.7.7.7.*.*.7.*.8.6.y.*.p.y.y.p.u.s.u.d.s.n.",
"b.b.v.v.v.i.j @ h t i a 1 =.7 =.k &.7.7.&.&.&.&.j i j =.=.&.h j =.*.7.7.5 =.=.6.7.6.5.5.e.8.8.8.8.8.8.9.9.y.y.y.p.p.u.s.n.s.s.n.",
"v.b.v.v.m.5.*.7.*.=.*.*.*.*.*.*.5.6.5.5.5.5.5.6.6.6.6.6.6.6.5.w.8.w.6.w.9.w.8.8.8.9.8.8.8.8.8.9.0.0.y.u.u.u.u.p.u.u.p.s.s.s.s.s.",
"b.b.b.v.f.f.i.i.s.p.y.8.5.5.6.9.9.5.9.y.9.5.9.5.8.5.5.8.0.8.8.8.8.0.0.w.0.0.q.0.q.q.q.q.q.0.q.q.u.u.u.a.u.u.a.s.i.s.u.u.s.s.n.n.",
"b.b.v.m.f.m.f.i.u.p.u.y.y.y.y.p.u.9.g.u.q.u.y.0.0.q.0.q.0.0.q.q.q.q.q.q.q.a.q.h.a.a.a.q.a.a.q.q.a.a.a.s.a.s.s.s.k.i.k.s.i.i.k.n.",
"b.b.v.v.v.g.f.f.i.i.i.u.f.a.u.k.h.h.k.h.h.h.h.q.q.q.j.q.q.q.q.j.h.h.h.h.c.h.h.h.a.z.j.j.j.j.z.j.z.a.a.z.a.n.z.s.k.s.s.z.z.s.s.n.",
"b.b.b.b.k.g.f.k.k.i.k.k.k.k.h.k.l.l.g.c.l.h.h.h.j.j.j.q.J.j.c.j.h.q.h.h.h.c.c.c.z.j.j.z.j.j.j.j.z.J.z.z.J.J.z.k.s.z.s.s.z.n.z.z.",
"m.b.l.g.g.l.f.f.u.u.k.k.k.l.f.l.l.l.x.x.x.x.c.c.J.J.j.J.J.j.c.c.c.c.c.h.j.J.c.J.J.a.j.z.z.z.z.z.z.z.J.z.J.a.j.z.z.s.J.z.z.n.n.z.",
"m.b.m.u.f.k.g.g.k.k.k.l.l.l.x.l.l.x.c.x.x.x.c.h.j.j.c.J.c.c.K.c.c.c.c.c.c.c.c.J.J.J.J.J.z.z.z.z.z.z.z.J.J.a.j.k.s.z.s.s.n.s.n.z.",
"m.v.m.f.f.f.g.f.k.k.l.x.l.b.x.l.x.x.l.x.J.x.c.c.J.j.J.J.J.J.J.c.J.J.x.J.x.J.J.x.J.P.J.J.J.J.J.J.z.J.J.z.x.l.l.l.z.k.k.k.z.n.k.k.",
"m.m.f.f.g.g.l.f.h.n.b.k.b.x.z.c.x.x.c.x.J.z.j.c.J.J.J.J.K.K.K.K.K.K.K.K.J.J.J.K.P.J.J.P.J.J.J.J.K.J.J.J.x.l.l.h.k.k.k.k.z.k.z.k.",
"f.f.f.f.f.g.l.k.k.l.k.n.b.l.x.x.b.x.K.K.h.x.J.j.J.J.J.J.K.K.K.K.K.K.x.K.K.L.K.K.K.L.P.P.P.P.J.b.P.J.j.J.b.x.l.h.k.k.u.h.k.k.k.n.",
"i.f.m.v.v.m.f.k.f.n.l.b.b.b.x.x.x.x.x.x.x.L.J.j.J.J.J.J.L.K.K.K.K.K.J.K.K.K.L.K.J.P.L.P.P.P.P.P.P.J.J.a.l.l.h.l.l.k.k.k.a.k.k.z."
};
